<?xml version="1.0" encoding="UTF-8"?>
<svg width="105mm" height="148mm" version="1.1" viewBox="0 0 105 148" xmlns="http://www.w3.org/2000/svg" xmlns:xlink="http://www.w3.org/1999/xlink">
 <defs>
  <linearGradient id="c">
   <stop stop-color="#fc0" offset="0"/>
   <stop stop-color="#ccc" offset="1"/>
  </linearGradient>
  <linearGradient id="a">
   <stop stop-color="#fc0" offset="0"/>
   <stop stop-color="#d4aa00" offset="1"/>
  </linearGradient>
  <linearGradient id="ar">
   <stop stop-color="#333" offset="0"/>
   <stop stop-color="#808080" offset="1"/>
  </linearGradient>
  <linearGradient id="aq">
   <stop stop-color="#da6213" stop-opacity=".99612" offset="0"/>
   <stop stop-color="#f95" offset="1"/>
  </linearGradient>
  <linearGradient id="b">
   <stop stop-color="#666" offset="0"/>
   <stop stop-color="#ccc" offset="1"/>
  </linearGradient>
  <linearGradient id="bn" x1="145.2" x2="308.59" y1="171.6" y2="173.62" gradientTransform="matrix(0 -.26458 .26458 0 2.208 296.56)" gradientUnits="userSpaceOnUse">
   <stop stop-color="#d55500" offset="0"/>
   <stop stop-color="#ffc9a6" offset="1"/>
  </linearGradient>
  <radialGradient id="bu" cx="71.654" cy="254.15" r="4.8262" gradientTransform="matrix(-.58816 -2.173 3.6507 -.98812 -819.79 631.74)" gradientUnits="userSpaceOnUse">
   <stop stop-color="#fff" offset="0"/>
   <stop stop-color="#ffffe2" stop-opacity=".14199" offset="1"/>
  </radialGradient>
  <radialGradient id="aw" cx="191.86" cy="160.28" r="138" gradientTransform="matrix(.3344 -.38105 .37769 .33145 -78.533 278.64)" gradientUnits="userSpaceOnUse">
   <stop stop-color="#993116" offset="0"/>
   <stop stop-color="#cf7835" stop-opacity="0" offset="1"/>
  </radialGradient>
  <radialGradient id="ax" cx="199.76" cy="182.44" r="7.8998" gradientTransform="matrix(.0019087 -.15333 .61489 .0034882 -62.274 273.91)" gradientUnits="userSpaceOnUse" xlink:href="#b"/>
  <radialGradient id="ay" cx="207.35" cy="185.42" r="7.8998" gradientTransform="matrix(-.038931 .27387 -.96778 -.062692 240.32 198.4)" gradientUnits="userSpaceOnUse">
   <stop stop-color="#d45500" offset="0"/>
   <stop stop-opacity="0" offset="1"/>
  </radialGradient>
  <linearGradient id="bs" x1="93.954" x2="93.954" y1="44.845" y2="47.997" gradientTransform="rotate(-90 149.39 147.18)" gradientUnits="userSpaceOnUse" spreadMethod="reflect">
   <stop stop-color="#632f2f" offset="0"/>
   <stop stop-color="#907d7d" offset="1"/>
  </linearGradient>
  <radialGradient id="az" cx="130.74" cy="47.963" r="3.1184" gradientTransform="matrix(.0044876 -.34235 1.4625 .019171 -236.56 94.01)" gradientUnits="userSpaceOnUse" xlink:href="#aq"/>
  <radialGradient id="ba" cx="130.57" cy="239.24" r="1.2566" gradientTransform="matrix(1 0 0 .22642 -296.56 -4.7179)" gradientUnits="userSpaceOnUse">
   <stop stop-color="#e9c6af" offset="0"/>
   <stop stop-color="#e9c6af" stop-opacity="0" offset="1"/>
  </radialGradient>
  <radialGradient id="bb" cx="130.6" cy="240.24" r="1.2566" gradientTransform="matrix(1 0 0 .22642 -296.56 -3.9476)" gradientUnits="userSpaceOnUse">
   <stop stop-color="#e9c6af" offset="0"/>
   <stop stop-color="#e9c6af" stop-opacity="0" offset="1"/>
  </radialGradient>
  <radialGradient id="bc" cx="-47.684" cy="130.5" r="2.0454" gradientTransform="matrix(-1.1731 -1.0721 1.0032 -1.0977 -136.6 257.98)" gradientUnits="userSpaceOnUse">
   <stop stop-color="#ffb380" offset="0"/>
   <stop stop-color="#f60" offset="1"/>
  </radialGradient>
  <radialGradient id="bd" cx="-47.762" cy="130.44" r="2.8837" gradientTransform="matrix(1.1647 .7204 -.95916 1.5508 130.77 -334)" gradientUnits="userSpaceOnUse" xlink:href="#aq"/>
  <radialGradient id="be" cx="122.66" cy="239.71" r="5.3683" gradientTransform="matrix(-.18594 -.58654 .57767 -.19268 -65.689 291.13)" gradientUnits="userSpaceOnUse">
   <stop stop-color="#333" offset="0"/>
   <stop stop-color="#ac9393" offset="1"/>
  </radialGradient>
  <radialGradient id="bf" cx="123.2" cy="47.764" r=".66388" gradientTransform="matrix(1 0 0 .78571 -296.56 12.443)" gradientUnits="userSpaceOnUse">
   <stop stop-color="#a02c2c" offset="0"/>
   <stop stop-color="#a02c2c" stop-opacity="0" offset="1"/>
  </radialGradient>
  <radialGradient id="bg" cx="125.76" cy="47.859" r=".4742" gradientTransform="matrix(1 0 0 1.3 -296.56 -12.15)" gradientUnits="userSpaceOnUse">
   <stop stop-color="#ffb380" offset="0"/>
   <stop stop-color="#ffb380" stop-opacity="0" offset="1"/>
  </radialGradient>
  <radialGradient id="bh" cx="115.81" cy="220.62" r="41.542" gradientTransform="matrix(.27654 .30029 -.29412 .27086 78.331 143.99)" gradientUnits="userSpaceOnUse" xlink:href="#b"/>
  <radialGradient id="bj" cx="115.81" cy="220.62" r="41.542" gradientTransform="matrix(.27654 .30029 -.29412 .27086 79.374 144.37)" gradientUnits="userSpaceOnUse" xlink:href="#b"/>
  <radialGradient id="bi" cx="115.81" cy="220.62" r="41.542" gradientTransform="matrix(.27654 .30029 -.29412 .27086 83.642 143.89)" gradientUnits="userSpaceOnUse" xlink:href="#b"/>
  <radialGradient id="bk" cx="178.95" cy="281.35" r="41.542" gradientTransform="matrix(.27654 .30029 -.29412 .27086 85.255 109.94)" gradientUnits="userSpaceOnUse" xlink:href="#b"/>
  <linearGradient id="bt" x1="50.682" x2="51.322" y1="277.41" y2="277.38" gradientUnits="userSpaceOnUse" xlink:href="#ar" spreadMethod="reflect"/>
  <radialGradient id="bl" cx="49.71" cy="278.63" r=".78798" gradientTransform="matrix(5.0426 -.34043 .23933 3.5451 -267.64 -691.31)" gradientUnits="userSpaceOnUse">
   <stop offset="0"/>
   <stop stop-opacity="0" offset="1"/>
  </radialGradient>
  <radialGradient id="bm" cx="50.817" cy="280.89" r=".55327" gradientTransform="matrix(-1.3298 -.061929 .041979 -.85861 206.12 472.11)" gradientUnits="userSpaceOnUse" xlink:href="#ar"/>
  <radialGradient id="bv" cx="45.485" cy="170.75" r=".25397" gradientTransform="matrix(1.1035 .80852 -.84641 1.1552 142.9 -62.694)" gradientUnits="userSpaceOnUse" xlink:href="#c"/>
  <radialGradient id="as" cx="48.009" cy="174.13" r=".21301" gradientTransform="matrix(1 0 0 1.4505 .55532 -81.237)" gradientUnits="userSpaceOnUse" xlink:href="#a"/>
  <radialGradient id="au" cx="48.009" cy="174.13" r=".21301" gradientTransform="matrix(1 0 0 1.4505 .24972 -78.459)" gradientUnits="userSpaceOnUse" xlink:href="#a"/>
  <radialGradient id="bw" cx="45.485" cy="170.75" r=".25397" gradientTransform="matrix(1.1035 .80852 -.84641 1.1552 142.59 -59.916)" gradientUnits="userSpaceOnUse" xlink:href="#c"/>
  <radialGradient id="at" cx="48.009" cy="174.13" r=".21301" gradientTransform="matrix(1 0 0 1.4505 4.0653 -79.749)" gradientUnits="userSpaceOnUse" xlink:href="#a"/>
  <radialGradient id="by" cx="45.485" cy="170.75" r=".25397" gradientTransform="matrix(1.1035 .80852 -.84641 1.1552 146.41 -61.206)" gradientUnits="userSpaceOnUse" xlink:href="#c"/>
  <radialGradient id="av" cx="48.009" cy="174.13" r=".21301" gradientTransform="matrix(1 0 0 1.4505 3.4742 -82.74)" gradientUnits="userSpaceOnUse" xlink:href="#a"/>
  <radialGradient id="bx" cx="45.485" cy="170.75" r=".25397" gradientTransform="matrix(1.1035 .80852 -.84641 1.1552 145.81 -64.197)" gradientUnits="userSpaceOnUse" xlink:href="#c"/>
  <linearGradient id="bo" x1="76.875" x2="76.529" y1="166.5" y2="166.84" gradientUnits="userSpaceOnUse" xlink:href="#a"/>
  <radialGradient id="bz" cx="76.951" cy="166.78" r=".21417" gradientTransform="matrix(1 0 0 4.2932 0 -549.24)" gradientUnits="userSpaceOnUse" xlink:href="#a"/>
  <linearGradient id="br" x1="76.875" x2="76.529" y1="166.5" y2="166.84" gradientTransform="translate(-78.82 13.166)" gradientUnits="userSpaceOnUse" xlink:href="#a"/>
  <radialGradient id="cb" cx="76.951" cy="166.78" r=".21417" gradientTransform="matrix(1 1.6804e-8 0 4.2932 -78.82 -536.08)" gradientUnits="userSpaceOnUse" xlink:href="#a"/>
  <linearGradient id="bp" x1="76.875" x2="76.529" y1="166.5" y2="166.84" gradientTransform="translate(-146.43 -8.952)" gradientUnits="userSpaceOnUse" xlink:href="#a"/>
  <radialGradient id="ca" cx="76.951" cy="166.78" r=".21417" gradientTransform="matrix(1 1.6804e-8 0 4.2932 -146.43 -558.2)" gradientUnits="userSpaceOnUse" xlink:href="#a"/>
  <linearGradient id="bq" x1="76.875" x2="76.529" y1="166.5" y2="166.84" gradientTransform="translate(37.546 -16.159)" gradientUnits="userSpaceOnUse" xlink:href="#a"/>
  <radialGradient id="cc" cx="76.951" cy="166.78" r=".21417" gradientTransform="matrix(1 1.6804e-8 0 4.2932 37.546 -565.4)" gradientUnits="userSpaceOnUse" xlink:href="#a"/>
 </defs>
 <g transform="translate(0,-149)">
  <g transform="matrix(1.2017 0 0 1.2017 -10.625 -43.816)">
   <rect transform="matrix(.99655 .083049 -.16954 .98552 0 0)" x="76.84" y="165.96" width=".22175" height="1.6324" rx=".2708" ry=".6379" fill="url(#bo)" stroke="url(#bz)" stroke-linecap="round" stroke-linejoin="round" stroke-width=".20659" style="paint-order:stroke fill markers"/>
   <path d="m50.218 168.91c1.3173-0.0364 1.7792 1.5993 2.0983 4.4569 0.26347 2.3591-0.135 3.3385-2.3343 3.2775-1.7314-0.048-2.4659-0.66391-1.9449-3.2396 0.67648-3.3439 0.95698-4.4609 2.1809-4.4948z" fill="url(#be)" style="paint-order:stroke fill markers"/>
   <rect transform="matrix(.95496 .29673 -.37878 .92549 0 0)" x="114.39" y="149.81" width=".22175" height="1.6324" rx=".2708" ry=".6379" fill="url(#bq)" stroke="url(#cc)" stroke-linecap="round" stroke-linejoin="round" stroke-width=".20659" style="paint-order:stroke fill markers"/>
   <rect transform="matrix(.70862 -.70559 .64118 .76739 0 0)" x="-69.592" y="157.01" width=".22175" height="1.6324" rx=".2708" ry=".6379" fill="url(#bp)" stroke="url(#ca)" stroke-linecap="round" stroke-linejoin="round" stroke-width=".20659" style="paint-order:stroke fill markers"/>
   <rect transform="matrix(.93368 -.3581 .27541 .96133 0 0)" x="-1.9803" y="179.13" width=".22175" height="1.6324" rx=".2708" ry=".6379" fill="url(#br)" stroke="url(#cb)" stroke-linecap="round" stroke-linejoin="round" stroke-width=".20659" style="paint-order:stroke fill markers"/>
   <rect x="51.317" y="169.57" width=".33234" height=".52426" rx=".19461" ry=".18254" fill="url(#av)" stroke="url(#bx)" stroke-dasharray="0.09368347, 0.09368347" stroke-linecap="round" stroke-linejoin="round" stroke-width=".093683" style="paint-order:stroke fill markers"/>
   <rect x="48.399" y="171.07" width=".33234" height=".52426" rx=".19461" ry=".18254" fill="url(#as)" stroke="url(#bv)" stroke-dasharray="0.09368347, 0.09368347" stroke-linecap="round" stroke-linejoin="round" stroke-width=".093683" style="paint-order:stroke fill markers"/>
   <rect x="51.909" y="172.56" width=".33234" height=".52426" rx=".19461" ry=".18254" fill="url(#at)" stroke="url(#by)" stroke-dasharray="0.09368347, 0.09368347" stroke-linecap="round" stroke-linejoin="round" stroke-width=".093683" style="paint-order:stroke fill markers"/>
   <rect x="48.093" y="173.85" width=".33234" height=".52426" rx=".19461" ry=".18254" fill="url(#au)" stroke="url(#bw)" stroke-dasharray="0.09368347, 0.09368347" stroke-linecap="round" stroke-linejoin="round" stroke-width=".093683" style="paint-order:stroke fill markers"/>
   <path d="m29.256 258.35c0.42979 10.708 11.071 17.381 21.954 16.119 11.963 1.1446 21.596-6.3298 21.477-15.93-9e-3 -0.63523-0.0675-1.2695-0.17518-1.8996-0.13537-2.3015-0.69658-6.7046-2.8727-12.247-0.01-0.038-0.0179-0.0703-0.0279-0.108-5.8462 1.5449-7.0306-5.2012-6.9913-7.646-2e-3 -5.4032 1.985-7.3259 4.7444-7.9887 1.0327-3.8447 2.1181-6.011 0.1757-11.86-2.3848-7.181-12.832-9.5125-14.856-14.64-3.218-0.17468-2.2311-0.13294-5.0408 0.0592-2.3526 4.9101-12.55 7.6384-14.689 14.699-1.7976 5.9332 0.0792 7.8413 0.83743 12.131 3.1126-0.1375 4.9769 2.5858 4.5628 7.4998-0.4682 4.6365-1.7807 9.0462-6.7975 7.9514-9e-3 0.0381-0.0167 0.0706-0.0253 0.10904-1.8967 6.0693-2.2756 13.751-2.2756 13.751z" fill="url(#bn)" stroke="url(#aw)" stroke-linecap="round" stroke-linejoin="round" stroke-width=".612" style="paint-order:stroke fill markers"/>
   <path d="m30.802 264.55c3.3907 6.9647 11.824 10.907 20.408 9.9121 9.3214 0.89184 17.226-3.4499 20.207-9.9518l-0.24494-0.28784c-2.0863-2.5605-4.2523-4.4388-9.7679-3.0344-2.9744 0.7573-10.096 0.88566-14.237 0.23712-3.3039-0.51745-12.156-1.5951-11.748-1.1854 2.276 2.1812-3.0346 3.6032-3.8881 2.1807s-0.66352 1.7074-0.66352 1.7074z" fill="#fff" fill-opacity=".4878" opacity=".327"/>
   <path d="m62.826 229.8c1.2328 0.47417 3.3191-1.0432 4.2675-3.3191 0.94833-2.276 0.8535-4.4571 0.75866-5.4055-0.0948-0.94833-0.94832 0.2845-1.5173 0.75866-0.569 0.47417-1.0432 1.2328-1.707 0.47417s-3.5088-2.276-5.3106-1.8018c-1.8018 0.47417-3.983 2.0863-4.552 4.4571s-1.138 4.3623-0.569 4.8365c0.569 0.47417 1.138 0.2845 1.6122-0.2845 0.47416-0.56899 1.0432-1.707 1.4225-2.5605 0.37933-0.85349 1.4225-1.9915 2.276-2.1812 0.8535-0.18967 1.3212-0.51943 2.6553-0.0948 2.8221 0.71772 0.66383 3.0799 0.66383 5.121z" fill="url(#bu)" opacity=".495"/>
   <path d="m39.592 217.86c0.39746 1.3283 3.6129 2.3484 5.011 2.2049 1.069-0.80177 2.4053-2.7394 2.0712-3.942-0.33407-1.2027-0.4677-2.6726-1.5367-2.7394s-3.0734 0.86859-4.0088 1.6035c-0.93539 0.73495-1.8481 1.8325-1.5367 2.873z" fill="#fdeee3"/>
   <path d="m44.871 207.23s-10.557 4.677-10.623 8.619c-0.0668 3.942 10.623-8.619 10.623-8.619z" fill="#ffeee4"/>
   <path d="m33.846 242.44-1.1358 1.8708s1.7372 0.20044 2.7394-0.53451 1.3363-1.5367 1.3363-1.5367z" fill="#bd8660"/>
   <path d="m33.915 241.65c0.0284-0.24168 0.29847-0.1684 0.67326-0.17278l1.39-0.0163c1.3574-0.0159 1.3177-0.15605 1.3005-0.11481l-0.34869 0.83449c-0.0172 0.0412-0.25894 0.24593-0.14123 0.23745l-2.9128 0.0516c-0.0857-0.57161-0.0773 0.17134 0.039-0.81969z" fill="#bc4b00" style="paint-order:stroke fill markers"/>
   <path d="m67.894 242.22 1.3168 1.8157s-2.014 0.41539-3.1759-0.29792-1.5492-1.7123-1.5492-1.7123z" fill="#a17d63"/>
   <path d="m67.814 241.46c-0.0329-0.23456-0.34604-0.16344-0.78055-0.16769l-1.6115-0.0158c-1.5737-0.0154-1.5277-0.15145-1.5077-0.11143l0.40426 0.80992c0.0199 0.04 0.3002 0.23869 0.16373 0.23046l3.377 0.0501c0.0994-0.55478 0.0896 0.16629-0.0452-0.79556z" fill="#b54c06" style="paint-order:stroke fill markers"/>
   <path d="m47.187 233.06 6.438-0.13413-2.2683-57.354-2.8285 0.016z" fill="url(#bs)"/>
   <rect transform="scale(-1)" x="-52.854" y="-167.1" width="5.7674" height="1.9448" rx=".49084" ry=".45739" fill="url(#bd)" style="paint-order:stroke fill markers"/>
   <path d="m51.543 167.9h-2.8255c-0.19288 0-0.70722-0.90631-0.70381-1.3694l0.01185-1.6098c0.0034-0.46309 0.15528-0.83593 0.34815-0.83593h3.3945c0.19288 0 0.38694 0.278 0.38372 0.74109l-0.01185 1.7046c-0.0032 0.4631-0.40423 1.3694-0.59711 1.3694z" fill="url(#bc)" style="paint-order:stroke fill markers"/>
   <rect transform="rotate(-90)" x="-168.94" y="48.73" width="6.2368" height="2.8837" rx=".53079" ry=".67821" fill="url(#az)" style="paint-order:stroke fill markers"/>
   <path d="m49.065 169.48c-0.56026 1.697-0.91511 3.6903-0.93887 6.1027h4.1579c-0.05147-2.6466-0.28391-4.5289-0.87181-6.1027z" fill="#c87137"/>
   <path d="m48.931 175.05 0.33531-6.438 1.7436 3e-5 0.40237 6.5051z" fill="#333"/>
   <path d="m36.302 247.27c3.5e-5 0.29734 0.10722 0.58318 0.29921 0.79789 0.12625 0.69125 0.41383 1.7461 2.1967 1.9541 1.8743 0.21866 2.7178-1.5304 3.1239-2.8424 0.28114-1.2495-0.03125-7.8096 0.28112-8.6842 0.16879-0.51241 0.1562-0.93727 0.62477-1.3746 0.46856-0.43733 0.70913-0.5117 1.084-0.41799 0.37485 0.0937 0.41544 0.35563 0.44668 0.54305 0.0024 0.0139 0.0077 0.0264 0.01188 0.0393-0.3512 0.0722-0.60818 0.44055-0.60823 0.87178 1.01e-4 0.48841 0.32724 0.88426 0.7307 0.88419 0.40327-2.7e-4 0.73009-0.39602 0.73019-0.88419-0.02088-0.47536-0.09173-0.65483-0.23202-0.97093-0.33545-0.67249-0.31163-0.68587-0.78909-0.93956-0.4998-0.28113-1.2491-0.1249-1.6552 0.0625-0.40609 0.18743-0.93721 0.68683-1.3121 1.6552-0.34361 0.84342-0.4539 1.9059-0.4687 2.9678-0.01656 1.1873-1.08e-4 4.9044-0.12506 6.1852-0.12495 1.0933-0.59328 1.562-0.9369 1.9368-0.34361 0.37485-1.3122 0.34329-1.4996 0.31205-0.18742-0.0312-0.58358-0.24494-0.59325-0.6557-0.01042-0.44255 0.06841-0.21611 0.14263-0.35915 0.42177-0.16785 0.70164-0.59901 0.70176-1.0811-8.2e-5 -0.63694-0.48195-1.1533-1.0764-1.1534-0.59467-1.5e-4 -1.0769 0.51627-1.0769 1.1534z" fill="#331513" style="paint-order:stroke fill markers"/>
   <path d="m64.984 247.08c-3.4e-5 0.29734-0.10722 0.58318-0.29921 0.79789-0.12625 0.69125-0.41383 1.7461-2.1967 1.9541-1.8743 0.21866-2.7178-1.5305-3.1239-2.8424-0.28114-1.2495 0.03125-7.8096-0.28112-8.6842-0.16879-0.51241-0.1562-0.93727-0.62477-1.3746s-0.70913-0.5117-1.084-0.41799c-0.37485 0.0937-0.41544 0.35563-0.44668 0.54305-0.0024 0.0139-0.0077 0.0264-0.01188 0.0393 0.3512 0.0722 0.60818 0.44055 0.60823 0.87178-1e-4 0.48841-0.32724 0.88426-0.7307 0.88419-0.40327-2.7e-4 -0.73009-0.39602-0.73019-0.88419 0.02088-0.47536 0.09173-0.65484 0.23202-0.97094 0.33545-0.67248 0.31163-0.68586 0.78909-0.93955 0.4998-0.28113 1.2491-0.1249 1.6552 0.0625 0.40609 0.18743 0.93721 0.68683 1.3121 1.6552 0.34362 0.84342 0.4539 1.9059 0.4687 2.9678 0.01656 1.1873 1.09e-4 4.9044 0.12506 6.1852 0.12495 1.0933 0.59328 1.562 0.9369 1.9368 0.34361 0.37485 1.3122 0.34329 1.4996 0.31205 0.18742-0.0312 0.58358-0.24494 0.59325-0.6557 0.01042-0.44255-0.06841-0.21611-0.14263-0.35915-0.42177-0.16785-0.70164-0.59901-0.70176-1.0811 8.2e-5 -0.63694 0.48195-1.1533 1.0764-1.1534 0.59468-1.5e-4 1.0769 0.51627 1.0769 1.1534z" fill="#2f110f" style="paint-order:stroke fill markers"/>
   <path d="m46.747 256.88c0.17926 2.8609 1.3992 5.7216 2.5694 8.5824l0.27337 4.4333c-0.34977 0.6119-0.65556 2.418-0.65629 3.2747 8e-6 0.61043 0.09877 1.1298 0.2682 1.5534l-1.033 0.19593 1.4366 0.49137c0.33436 0.39281 0.71277 0.49281 1.1871 0.4927 0.42866-1e-4 0.87776-0.0636 1.1967-0.38625l1.482-0.70693-1.0029-0.03c0.18382-0.43343 0.29196-0.97229 0.29197-1.6102-2.11e-4 -0.86401-0.63646-2.6769-0.99115-3.2908l0.33538-4.7997c1.0674-2.728 2.2248-5.4111 2.7332-8.4186-2.6968 0.25304-5.3936 0.40016-8.0905 0.21859z" fill="#331513" style="paint-order:stroke fill markers"/>
   <rect transform="rotate(-90)" x="-167.25" y="49.166" width="2.5133" height=".56904" rx=".5365" ry=".28452" fill="url(#ba)" style="paint-order:stroke fill markers"/>
   <rect transform="rotate(-90)" x="-167.22" y="50.161" width="2.5133" height=".56904" rx=".5365" ry=".28452" fill="url(#bb)" style="paint-order:stroke fill markers"/>
   <rect transform="rotate(-90)" x="-273.52" y="50.114" width=".56904" height="1.5174" rx=".5365" ry=".28452" fill="#999" opacity=".566" style="paint-order:stroke fill markers"/>
   <path d="m45.381 244.61c0.31128 0.62515 0.73457 0.87393 1.5034 1.0067 0.83749-6e-3 4.8464-0.01 6.5748-0.01 1.7338-0.36505 1.3497-0.0412 2.3355-1.1994 0.0599-0.64075-0.42422-1.1994-1.2847-1.1994-0.69175 3.5e-4 -1.3499 0.56138-1.544 1.0096l-4.989-0.0783c-0.23518-0.40098-0.72713-0.83904-1.366-0.83921-0.8605-1e-5 -1.2301 0.72922-1.2301 1.3101z" fill="url(#ax)" stroke="url(#ay)" stroke-linecap="round" stroke-linejoin="round" stroke-opacity=".98394" stroke-width=".25635" style="paint-order:stroke fill markers"/>
   <rect transform="rotate(-90)" x="-171.28" y="49.45" width=".94841" height="1.2329" rx=".5365" ry=".28452" fill="url(#bg)" opacity=".544" style="paint-order:stroke fill markers"/>
   <ellipse transform="rotate(-90)" cx="-173.37" cy="49.972" rx=".66388" ry=".52162" fill="url(#bf)" style="paint-order:stroke fill markers"/>
   <rect x="47.9" y="258.4" width=".45119" height="1.3508" rx=".14226" ry=".51434" fill="#1a1a1a" fill-opacity=".3876" style="paint-order:stroke fill markers"/>
   <rect x="49.577" y="258.74" width=".45119" height="1.3508" rx=".14226" ry=".51434" fill="#1a1a1a" fill-opacity=".3876" style="paint-order:stroke fill markers"/>
   <rect x="51.321" y="258.77" width=".45119" height="1.3508" rx=".14226" ry=".51434" fill="#1a1a1a" fill-opacity=".3876" style="paint-order:stroke fill markers"/>
   <rect x="53.098" y="258.4" width=".45119" height="1.3508" rx=".14226" ry=".51434" fill="#1a1a1a" fill-opacity=".3876" style="paint-order:stroke fill markers"/>
   <path transform="rotate(-90)" d="m-256.72 54.692a1.3412 4.0237 0 0 1 -1.4121 -3.7238 1.3412 4.0237 0 0 1 1.2162 -4.301" fill="#4d4d4d" fill-opacity=".3876" opacity=".566" stroke="#ac9393" stroke-linecap="round" stroke-linejoin="round" stroke-width=".312" style="paint-order:stroke fill markers"/>
   <rect transform="matrix(0 -1 .9992 .039968 0 0)" x="-172.31" y="49.193" width=".2371" height="1.7797" rx=".14226" ry=".28475" fill="#ccc" fill-opacity=".3876" opacity=".394" style="paint-order:stroke fill markers"/>
   <rect transform="matrix(0 -1 .99901 .044401 0 0)" x="-170.54" y="49.273" width=".2371" height="1.602" rx=".14226" ry=".25632" fill="#ccc" fill-opacity=".3876" opacity=".394" style="paint-order:stroke fill markers"/>
   <rect transform="matrix(0 -1 .99894 .046105 0 0)" x="-169.21" y="49.348" width=".2371" height="1.5428" rx=".14226" ry=".24685" fill="#ccc" fill-opacity=".3876" opacity=".394" style="paint-order:stroke fill markers"/>
   <rect transform="matrix(0 -1 .99877 .049526 0 0)" x="-167.31" y="49.44" width=".2371" height="1.4362" rx=".14226" ry=".2298" fill="#ccc" fill-opacity=".3876" opacity=".394" style="paint-order:stroke fill markers"/>
   <path d="m48.17 258.39s-0.69216-10.487-0.63281-13.651c0.76902-40.994 1.6761-70.52 1.6761-70.52" fill="none" stroke="url(#bh)" stroke-linecap="round" stroke-width=".26458px"/>
   <path d="m49.829 258.63-0.5365-12.832 0.44816-74.403" fill="none" stroke="url(#bj)" stroke-linecap="round" stroke-width=".26458px"/>
   <path d="m53.291 258.34c-0.01243-29.13-1.6313-56.104-2.4691-85.647" fill="none" stroke="url(#bi)" stroke-linecap="round" stroke-width=".26458px"/>
   <path d="m51.537 258.63-1.2771-88.951" fill="none" stroke="url(#bk)" stroke-linecap="round" stroke-width=".265"/>
   <path d="m49.995 275.51 1.576-0.0335-0.80475 5.5997z" fill="url(#bt)" stroke="url(#bl)" stroke-linecap="round" stroke-width=".1"/>
   <path transform="matrix(.88947 .457 -.36396 .93141 0 0)" d="m149.97 228.2a0.53663 0.5734 0 0 1 -0.0985 -0.68553 0.53663 0.5734 0 0 1 0.59157 -0.28543 0.53663 0.5734 0 0 1 0.41615 0.53226" fill="url(#bm)" style="paint-order:stroke fill markers"/>
  </g>
 </g>
</svg>
