<?xml version='1.0' encoding='utf-8'?>
<svg xmlns="http://www.w3.org/2000/svg" width="100%" height="100%" viewBox="0 0 4196 3239" version="1.1" style="fill-rule:evenodd;clip-rule:evenodd;stroke-linecap:round;stroke-linejoin:round;stroke-miterlimit:1.5;"> <g id="Artboard1" transform="matrix(1.04893,0,0,1.07533,0,-600.383)"> <rect x="0" y="558.323" width="4000" height="3011.67" style="fill:none;"/> <g transform="matrix(1,0,0,1,16.9641,15.9267)"> <g transform="matrix(0.976844,0,0,0.929945,-160.654,88.042)"> <path d="M1048.69,1425.89C870.001,1362.22 763.774,1282.61 763.774,1196.27C763.774,987.633 1384.2,818.243 2148.39,818.243C2798.53,818.243 3344.61,940.846 3493.13,1105.92C3728.08,1268.69 3893.68,1658.39 3893.68,2112.77C3893.68,2588.2 3712.37,2992.82 3460.03,3140.77C3274.7,3289.97 2757.16,3397.47 2148.39,3397.47C1384.2,3397.47 763.774,3228.08 763.774,3019.44C763.774,2933.11 870.001,2853.5 1048.69,2789.83L1048.69,1425.89Z" style="fill:url(#_Linear1);stroke:black;stroke-width:59.27px;"/> </g> <g transform="matrix(0.753482,0,0,0.929945,17.5526,88.042)"> <ellipse cx="1048.69" cy="2112.77" rx="645.598" ry="1088.09" style="fill:url(#_Linear2);stroke:black;stroke-width:66.57px;"/> </g> <g transform="matrix(0.953349,0,0,0.942545,-142.708,77.1294)"> <path d="M1470.58,866.109C1752.2,866.11 1980.83,1415.33 1980.83,2091.82C1980.83,2768.31 1752.2,3317.54 1470.58,3317.54" style="fill:none;stroke:black;stroke-width:43.78px;"/> </g> <g transform="matrix(0.953349,0,0,0.976346,343.738,6.12128)"> <path d="M1470.58,866.109C1752.2,866.11 1980.83,1415.33 1980.83,2091.82C1980.83,2768.31 1752.2,3317.54 1470.58,3317.54" style="fill:none;stroke:black;stroke-width:42.99px;"/> </g> <g transform="matrix(0.886433,0.00175184,-0.00199866,0.962283,1026.27,31.276)"> <path d="M1470.58,866.109C1752.2,866.11 1980.83,1415.33 1980.83,2091.82C1980.83,2768.31 1752.2,3317.54 1470.58,3317.54" style="fill:none;stroke:black;stroke-width:44.81px;"/> </g> <g transform="matrix(1.02894,0,0,0.921088,1196.53,123.652)"> <path d="M1470.58,866.109C1752.2,866.11 1980.83,1415.33 1980.83,2091.82C1980.83,2768.31 1752.2,3317.54 1470.58,3317.54" style="fill:none;stroke:black;stroke-width:42.55px;"/> </g> <g transform="matrix(0.953349,0,0,0.929945,-142.708,88.042)"> <path d="M1257.58,1200.05C2124.82,1062.88 2962.31,1105.99 3754.88,1327.44" style="fill:none;stroke:black;stroke-width:16px;"/> </g> <g transform="matrix(0.945432,0,0,0.950152,14.1054,339.46)"> <path d="M1257.58,1200.05C2099.44,1063.86 2930.72,1095 3754.88,1327.44" style="fill:none;stroke:black;stroke-width:15.89px;"/> </g> <g transform="matrix(0.945432,0,0,0.647048,90.2944,982.55)"> <path d="M1256.69,1177.48C2102.13,1134.03 2924.33,1159.67 3745.23,1303.61" style="fill:none;stroke:black;stroke-width:18.68px;"/> </g> <g transform="matrix(0.945432,0,0,-0.647048,104.48,2814.9)"> <path d="M1263.73,1200.05C1971.97,1175.17 2803.63,1055.36 3744.66,1173.16" style="fill:none;stroke:black;stroke-width:18.68px;"/> </g> <g transform="matrix(0.929262,0,0,-0.647048,132.479,3103.95)"> <path d="M1257.58,1200.05C1950.91,1047.12 2792.29,937.59 3749.01,1201.11" style="fill:none;stroke:black;stroke-width:18.89px;"/> </g> <g transform="matrix(0.934652,0,0,-0.647048,33.7384,3417.92)"> <path d="M1257.58,1200.05C1950.91,1047.12 2792.29,937.59 3749.01,1201.11" style="fill:none;stroke:black;stroke-width:18.82px;"/> </g> <g transform="matrix(0.920661,0,0,-0.647048,-80.1697,3662.11)"> <path d="M1257.58,1200.05C1950.91,1047.12 2792.29,937.59 3749.01,1201.11" style="fill:none;stroke:black;stroke-width:19.01px;"/> </g> </g> </g> <defs> <linearGradient id="_Linear1" x1="0" y1="0" x2="1" y2="0" gradientUnits="userSpaceOnUse" gradientTransform="matrix(2902.36,-4.5087,4.40026,2973.89,991.327,2007.54)"><stop offset="0" style="stop-color:rgb(126,88,0);stop-opacity:1"/><stop offset="1" style="stop-color:rgb(227,158,0);stop-opacity:1"/></linearGradient> <linearGradient id="_Linear2" x1="0" y1="0" x2="1" y2="0" gradientUnits="userSpaceOnUse" gradientTransform="matrix(1297.95,2.27374e-13,-2.87686e-13,1025.84,403.088,2097.3)"><stop offset="0" style="stop-color:rgb(114,79,0);stop-opacity:1"/><stop offset="1" style="stop-color:rgb(170,120,3);stop-opacity:1"/></linearGradient> </defs> </svg>