<?xml version="1.0" encoding="UTF-8"?>
<svg version="1.1" viewBox="0 0 900 900" xmlns="http://www.w3.org/2000/svg">
 <g transform="translate(0 -152.36)">
  <path transform="translate(0 152.36)" d="m168.86 50c-3.7076 8.83e-4 -7.3646 0.40584-10.865 1.9551-5.8799 2.9149-4.9633 10.528-3.3887 15.779 5.1039 15.687 10.766 31.259 14.016 47.48 3.5482 17.132 5.4321 34.558 7.1758 51.943 1.3895 8.5105 1.9066 17.347 5.0625 25.426-0.26697 5.8656 1.8943 11.593 2.8106 17.373 1.9365 7.821 1.2365 16.111 3.7617 23.781 3.1128 16.763 5.414 33.678 7.8438 50.555 3.3592 21.734 3.144 43.793 2.0957 65.697-0.0521 9.4268-3.3791 18.279-5.7363 27.27-1.2242 7.5761-4.1533 14.659-6.541 21.906-8.0343 21.706-20.981 41.078-32.797 60.834-10.118 16.372-15.852 34.874-22.514 52.795-3.2755 8.3916-4.1637 17.409-3.9883 26.352-0.66956 13.546 2.7911 26.787 6.9785 39.541 3.8769 8.1615 7.1703 16.605 10.236 25.102 3.2441 2.3056 2.2976 6.8248 5.5644 8.7559 1.299 6.581 4.4358 12.675 7.1758 18.775 6.9771 13.235 14.133 26.399 20.244 40.072 3.9156 7.7018 5.1028 16.345 7.9512 24.441 3.9562 15.996 3.8627 33.156-0.72071 49.01-0.69434 5.0947-6.4529 9.4791-4.4141 14.662 4.201 3.7634 10.228 4.3072 15.447 5.8828 18.417 4.1739 36.878 8.208 55.393 11.906 7.0501 1.275 8.4963-7.1216 9.3027-11.941 3.9277 0.33277 13.257 5.5207 13.621-1.2383 0.89299-38.978 2.6133-77.93 3.9414-116.89-1.0807-6.1456 3.9955-6.4417 7.8652-3.2832 10.589 5.2008 21.469 10.052 31.195 16.779 11.617 6.8674 22.873 14.432 33.006 23.383 2.825 3.6871 7.6459 5.7198 10.406 8.7949 6.8877 9.0121 15.67 16.392 22.588 25.396 2.6774 4.3992 9.5276 5.396 10.037 11.045 3.5398 4.2151 6.4468 8.7615 7.6777 14.324 3.4044 4.8529 6.5973 9.8996 9.5098 15.088 8.0416 13.288 13.911 27.787 22.459 40.771 4.8771 7.6539 12.368 14.077 21.643 15.273 25.569 6.1702 51.457 10.84 77.334 15.498 11.561 1.6993 22.898 5.3126 34.652 5.4141 14.498 1.2524 28.858 3.8246 43.381 4.9062 8.5633 1.1641 17.296 0.32005 25.771 2.1289 16.858 2.3662 33.914 2.9545 50.891 4.043 12.644 0.91747 25.418 0.698 37.969 2.4844l0.55469 0.14063c11.826 0.782 23.71 0.66579 35.553 0.34179 5.2452 0.1842 10.634-2.894 12.494-7.8867 1.6288-4.2025-1.5243-10.833 2.4805-13.637 1.3234-5.1388-1.8372-10.286-3.918-14.854-6.6081-11.688-16.841-20.795-26.898-29.467-8.2001-7.3456-18.283-11.875-27.605-17.533-4.5522-2.5077-9.3622-3.0342-13.129-6.6289-6.1317-2.5475-12.083-5.6855-18.445-7.5918-12.065-4.8636-23.915-10.432-35.131-17.053-17.033-10.021-30.923-24.277-44.365-38.549-5.1882-5.0666-8.802-11.679-14.42-16.217-2.8914-8.0656-9.6736-13.766-13.645-21.23-3.2463-4.4426-3.0461-10.038-4.9102-14.936-2.1148-5.0166-8.3024-6.0795-10.117-11.357-2.2281-4.9005-5.3326-9.5017-6.748-14.717-0.17284-6.2675-5.9976-9.9891-9.4902-14.529-2.6954-4.6182-4.9062-9.5834-7.9609-14.076-2.8412-4.2474 0.25017-9.8809-3.002-13.834-4.9848-3.9064-9.0231-8.8538-12.145-14.369-3.4768-4.894-5.0584-10.683-6.0156-16.283-3.8372-4.9358-8.9308-8.8293-12.18-14.273-2.8042-4.7427-6.9602-9.673-6.5898-15.475-1.233-5.8383-5.91-10.216-10.025-14.248-5.1396-2.9414-5.7184-9.0578-9.4219-13.232-5.7312-11.062-5.3424-24.04-9.5-35.623-1.9923-9.0655-5.348-17.757-9.6055-25.996-2.5454-4.8171-3.6487-10.39-7.7129-14.285-4.0367-4.1594-5.5462-9.9026-9.3809-14.24-3.9304-4.2916-6.847-9.3342-8.3535-14.973-2.373-4.7008-5.7769-8.9313-5.5352-14.545-2.2101-29.176 0.86582-58.388 2.0918-87.539 1.0102-26.046 1.8674-52.104 3.6992-78.111 3.119-41.64 3.8446-83.408 6.6191-125.07-0.45505-5.5066 2.4088-11.238 0.97852-16.424-2.7175-4.8438-9.5868-2.2323-12.582-6.7832-5.3733-1.8716-11.347-1.1028-16.988-1.5234-76.11-1.185-152.24-1.245-228.35-2.238-4.73 0.243-9.58-0.423-14.34-0.422zm4.1348 10.236c2.9733 0.04809 6.4509 0.9467 8.8965 0.28125 75.306-0.26586 150.61 0.33804 225.91 1.375 5.0677 0.74958 12.004-1.0252 16.039 1.248 0.65237 9.11 0.11042 18.261-0.041 27.383-1.6778 43.966-1.6754 87.999-4.4434 131.92-2.0958 32.753-2.6265 65.579-3.6309 98.377-0.58116 18.207-0.16921 36.435 1.4453 54.58-0.34507 1.5761-3.3258 1.4526-4.709 2.3594-4.3386 1.9826-10.787 2.9466-12.178 8.2617-1.5644 6.5099 6.719 8.3133 11.432 6.6406 4.7997-2.1009 3.5369 2.7853 2.4922 5.4512-1.3789 6.7042-2.9438 13.367-5.0508 19.873-2.7914 16.164-4.0315 32.59-4.5274 48.975 0.0248 19.975-0.16146 40.65 6.6035 59.471 3.8999 10.85 7.5583 21.884 14.385 31.34 4.0905 4.7831 1.6623 11.08 2.2324 16.645 1.9027 6.108 2.3176 12.565 2.8613 18.928-1.5889 5.7819 7.3781 11.361 10.09 5.1133 1.8391-7.928 0.55606-16.181 0.34961-24.229-8e-3 -6.8118-2.784-14.135 1.1641-20.389 5.5445-14.293 8.5817-29.474 10.658-44.625 1.2769-4.589-1.7319-11.242 4.0918-13.436 2.774-1.7911 12.729-4.9415 11.455 0.88867 3.9929 4.4648 6.5596 10.023 9.5586 15.199-2.4905 2.2228-5.0927 4.3238-7.457 6.6836-4.9706 3.2348-3.4296 10.152 1.9199 11.84 5.1664 2.6676 8.6146-5.189 13.57-3.0195 4.7357 3.5193 7.135 9.2682 9.9551 14.289 2.6212 5.8602-6.6516 7.4348-9.0254 11.818-4.9337 3.408-2.5704 11.901 3.6094 11.434 6.0707 0.97761 10.425-7.8215 16.141-4.6699 4.272 4.7174 6.7249 10.742 9.9629 16.174 1.5231 1.9172-2.3323 2.9173-3.209 4.4062-4.0605 3.9075-9.8544 6.237-12.525 11.396-1.636 5.965 6.6546 8.6933 11.113 6.4121 4.8037-0.55513 9.089-6.2483 13.783-4.3926 3.9262 5.2155 6.0094 11.644 8.2324 17.738-0.0326 4.5277-7.9569 5.2257-10.949 8.4082-5.594 1.9354-6.6161 9.6339-1.2676 12.498 6.4189 2.8436 12.946-1.005 18.865-3.4258 1.935-1.6477 3.1607-0.33671 4.2774 1.4336 3.1419 3.324 3.9605 7.7137 6.8906 11.033 2.438 5.3479-5.1948 6.2797-7.8613 9.2656-3.4016 2.9896-7.9692 5.7088-9.1875 10.324-0.23861 6.958 9.0776 5.7238 13.477 4.1816 3.5245-0.7107 12.536-7.015 12.213 0.33008-1.1871 4.8174-0.58007 11.077-5.8223 13.557-3.7396 2.695-8.3895 3.8943-12.965 3.7715-14.298-0.75184-26.614-9.2789-38.047-17.102-7.0384-5.5387-14.783-10.061-22.041-15.297-7.7051-5.3184-14.346-12.17-22.461-16.857-9.5646-7.0979-18.277-15.338-28.275-21.871-6.3574-1.356-8.6069-8.1506-13.982-10.725-12.2-7.0037-22.732-16.452-33.916-24.902-11.571-8.427-23.362-16.567-35.236-24.562-3.9476-3.058-9.2937-3.9194-11.764-8.5644-4.6039-2.2071-8.822-4.6269-12.582-8.2148-10.087-5.9612-18.91-13.73-28.52-20.395-5.4012-3.6372-10.439-8.0383-16.252-10.936-4.8291-3.4064-9.0999-7.675-14.148-10.854-4.5295-2.3971-9.1063-4.7789-13.107-8.082-3.3869-3.9204-7.9015-5.2078-11.814-8.3418-9.1978-5.8976-18.794-11.186-28.059-16.998-10.943-6.5147-21.584-13.625-32.857-19.529-6.7856-2.6277-0.0698-9.5436 1.7988-13.57 10.89-18.506 16.994-39.26 22.871-59.768 3.2292-10.479 4.1308-21.448 3.9766-32.361 0.38979-24.066-3.4141-47.882-5.7695-71.764-0.56655-10.463-3.0545-20.637-5.2246-30.844-1.0823-12.152-2.271-24.345-4.541-36.357-3.0136-11.497-5.0133-23.234-6.6797-35-1.2606-9.6198-3.4442-19.069-5.2207-28.59-1.4455-14.689-4.4784-29.145-7.5938-43.555-1.5411-8.4967-4.281-16.863-4.6797-25.514 0.97927-2.1249 2.9863-2.6019 5.2988-2.5645zm258.06 7.4141c0.62136-0.05186 1.3808 0.24796 2.3086 1.0371 1.0514 7.5605 0.1089 15.255 0.0625 22.863-0.76018 27.776-2.8144 55.499-3.5293 83.275-1.4634 19.65-4.0496 42.286-3.7344 58.414-0.23133 3.5558-0.47641 7.1146-0.91016 10.652-0.49043 6.2018-1.6544 0.14767-1.3672-2.584 0.30816-24.456 1.1439-38.635 1.9061-61.598 1.7822-34.093 1.6212-68.254 2.7305-102.37-0.23966-2.6005-0.15935-9.4628 2.5332-9.6875zm-18.791 5.9473c-4.9659 0.12847-9.3775 7.648-4.2012 10.74 1.5506 0.90357 3.3563 1.4891 5.168 1.3262 6.6388-0.33086 6.0984-11.153 0.0312-11.99-0.33332-0.06064-0.66699-0.08474-0.99805-0.07617zm-2.6289 36.805c-5.0016 0.23173-9.447 7.8024-5.1856 12.041 1.1633 1.1 2.7986 1.495 4.3477 1.6191 6.6302 1.2863 9.9996-7.9317 4.9922-11.895-1.3085-1.3202-2.7538-1.8305-4.1543-1.7656zm-1.7949 38.07c-0.38722-4e-3 -0.78911 0.0326-1.2031 0.11523-4.9194 0.954-9.6125 9.3314-2.9492 11.469 2.2042 1.1425 4.9914 1.9504 7.3672 0.82422 5.2329-2.9965 2.5936-12.341-3.2148-12.408zm-1.1074 38.27c-8.7841 3.0048-7.5696 5.1711-5.3301 10.18 1.785 2.4648 5.265 4.915 8.2422 2.8359 5.2758-2.9671 4.3256-9.8547-0.64844-12.543-0.79391-0.36913-1.5472-0.50758-2.2637-0.47265zm-2.8809 38.266c-0.70599 0.0442-1.4321 0.25279-2.1621 0.65821-4.2736 1.8347-6.4089 8.3449-2.1328 11.334 3.4015 2.9538 9.5936 2.5644 10.984-2.334 1.0984-3.8638-2.0039-9.2942-5.9902-9.6484-0.22998-0.0205-0.46389-0.0235-0.69922-0.01zm-0.47461 38.307c-0.29953-0.0182-0.60514-0.0181-0.91406 4e-3 -0.32952 0.023-0.66233 0.0694-1 0.14062-4.215 1.5594-9.6808 8.1924-4.3359 11.717 3.3412 5.0057 12.219 4.5643 12.537-2.3965 1.5195-4.5927-1.7942-9.1919-6.2871-9.4648zm20.074 1.5606 0.27344 0.47852 0.11133 0.67187c-0.0464 4.694-2.466-0.50432-0.38477-1.1504zm-20.408 38.582c-0.62795 2e-3 -1.2598 0.13335-1.877 0.42188-4.7115 2.4492-7.6307 10.212-1.2676 12.621 3.1024 1.7358 7.237 0.61882 8.8652-2.6172 2.8502-4.0395-1.3251-10.436-5.7207-10.426zm3.0723 38.076c-5.014-0.18661-12.086 6.9475-6.6309 11.16 1.7776 1.9478 4.6834 2.577 7.1934 1.9727 6.5642-1.2468 5.2846-11.902-0.5625-13.133zm8.2598 41.93c0.1616-8e-3 0.32284-5e-3 0.48242 0.01 0.85113 0.0796 1.6444 0.51171 2.0664 1.5156-0.2337 1.2248-1.8594 1.3581-2.8359 1.418-4.5558-0.21852-2.1369-2.8164 0.28711-2.9434zm6.0332 11.057c0.0837-0.0178 0.17956-6e-3 0.28907 0.0391l0.2207 0.82618 0.0742 0.94531c-0.31692 5.1777-1.8387-1.5433-0.58399-1.8106zm-1.377 7.8906c0.74492 0.0399 0.29768 4.8045-0.0703 6.3242-0.79101 2.776-0.47403 8.706-3.5293 9.6289-1.5824-4.474 1.1309-9.6432 2.4102-14.123 0.56049-1.3318 0.94115-1.8434 1.1894-1.8301zm18.936 5.9688c5.5792 9.5116 11.537 18.903 15.084 29.416 0.2777 0.64064 0.44817 1.5604-0.12695 2.1133-6.5439 0.8708-9.4395-7.9147-12.404-12.527-1.2929-6.2383-1.6803-12.674-2.5527-19.002zm-12.871 0.82812c2.1697 0.25932 1.8101 7.6689 2.4219 10.551 0.14206 1.7086 0.25436 3.4196 0.32226 5.1328 0.12937 1.5953 0.41796 11.058-1.5781 6.998-1.2774-7.4474-2.0576-15.153-1.166-22.682zm24.811 11.354c0.23906-0.0408 0.95861 0.47985 2.457 1.9961 1.9847 5.4425-3.3108-1.8506-2.457-1.9961zm2.6934 5.5664c0.30694-0.0569 0.89567 0.29677 1.8906 1.3906-0.48287 4.2608-2.9868-1.1873-1.8906-1.3906zm-32.066 4.8809c0.17542 0.0219 0.36094 0.17408 0.5586 0.48633 0.98062 20.058 1.7245 40.136 3.1055 60.176 0.49976 8.8947 1.1658 17.805 0.98632 26.717-2.3203 0.83806-3.2685-7.2258-4.0723-9.9512-0.98864-6.0279 0.17311-12.158-1.9473-18.062-1.4558-17.215-1.3403-34.556-0.48632-51.803-0.0442-1.5373 0.62754-7.7155 1.8555-7.5625zm-6.8301 0.0547c-2e-3 6.0376-3e-3 12.074-4e-3 18.111-0.0212 14.345-1.4522 28.251 0.68945 42.492-0.2037 9.0766 2.4714 15.996 3.1914 23.689 1.0696 3.6148 1.7427 7.4624 2.9746 10.668 0.82522 2.0056 1.6082 5.6551 2.0723 6.8476 0.70293 1.8065 1.3127 3.7954 1.1816 5.75-4.2612-7.5871-5.3587-16.011-7.9629-23.49-9.1594-20.441-4.2287-67.055-2.1426-84.068zm13.34 9.041c2.3579 7.6951 2.3665 15.927 2.6289 23.918-1.3978 5.8462 0.6696 12.346 0.37304 17.162 0.20409 1.805 0.32068 3.8744 0.41016 4.8106 0.28184 9.8216 1.156 17.686 1.668 26.941 0.37664 5.8218 0.0957 11.563 1.2715 18.424 0.1437 2.191 0.25492 4.3876 0.19922 6.584-0.39166 7.2194-3.1714-2.4662-2.7422-5.0332-2.0779-6.7519-0.74624-13.89-1.0976-20.869-0.99956-4.6159-0.41044-11.687-0.95313-14.953-0.46636-2.8065-0.39722-5.4506-0.42187-7.9941 3.1e-4 -0.0455 0.013-0.0762 0.0156-0.11914-0.78812-2.4146-0.43299-6.4742-0.30664-8.5078 0.3426-4.5399-0.54101-8.0876-0.54101-13.238-0.96993-3.8733-0.19071-8.9268-0.72071-12.875 0.73482-4.268-2.8546-11.963 0.2168-14.25zm33.045 3.1133c0.72283 0.053 2.2392 3.1434 2.4043 4.502 0.63929 2.0254 1.3345 4.0773 1.5293 6.2031-2.2511 0.18207-3.6511-5.8281-4.2266-8.4473-0.20029-1.6795-0.0356-2.2819 0.29297-2.2578zm-286.94 1.9121c0.37111-0.01 0.76612 0.0191 1.1855 0.0898 10.895 4.9796 21.068 11.432 31.334 17.582 2.0126 1.6475 5.6065 3.1124 7.7812 5.1465 0.24071 0.14138 0.48212 0.28085 0.7207 0.42578 6.6669 4.1702 19.632 13.599 25.25 17.404 14.97 7.7341 44.275 30.618 51.408 34.783 3.9308 4.4398 10.978 6.0895 16.83 9.7578 4.0204 4.5592 8.8158 8.4282 13.82 11.889 5.4244 2.3778 10.111 6.0818 14.695 9.8262 3.9447 3.7506 9.8158 4.3589 12.678 9.2383 5.23 3.948 11.101 7.0232 16.244 11.139 5.2681 3.5983 10.044 7.8434 14.98 11.826 4.7132 2.9299 10.441 3.0005 13.119 8.707 4.6079 3.2716 9.9874 5.6922 14.441 9.3887 5.0904 3.1121 9.0325 7.8615 14.076 10.895 9.4743 5.496 17.543 13.129 26.633 19.225 9.3602 5.4857 16.885 13.369 25.465 19.898 5.3009 4.6647 11.799 7.498 17.238 11.971 4.5788 3.8349 9.7474 6.7448 14.842 9.7812 9.416 7.0683 20.172 12.632 31.85 14.691 9.172 2.2735 19.34-1.7903 24.334-9.8125 3.2119-3.2744 1.7443-11.331 7.1562-11.795-2.7218 3.4096-1.3535 11.067 5.1074 7.6758 4.0133-4.8278 3.4659 3.4016 3.3672 5.8184 5.5834 1.9154 9.7864 6.2128 12.918 11.221 11.955 14.902 25.035 29.192 40.572 40.438 9.8256 8.0574 20.742 14.672 32.285 19.965 7.9925 2.5348 15.525 6.3712 22.977 10.227 4.8807 2.9209 9.8347 5.7415 15.295 7.4531 12.54 5.9728 24.688 12.906 35.986 20.996 8.1483 6.8624 16.512 13.681 23.311 21.926 2.7292 4.6216 5.5161 11.096 3.2949 16.271-1.3695 0.84356-3.095 0.81424-4.6426 1.0547-20.435 1.3633-40.959 0.38688-61.375-0.91016-10.951-0.43259-21.611-3.2454-32.543-3.8164-16.096-0.64722-32.22-0.95843-48.264-2.5723-26.507-2.7883-52.98-6.0466-79.309-10.217-17.059-3.1302-34.21-5.8076-51.186-9.373-14.174-3.4344-28.584-6.6446-41.943-12.623-12.674-7.5979-18.188-22.023-25.744-33.988-7.026-10.276-12.187-21.702-19.457-31.812-13.07-16.17-27.396-31.299-42.045-46.041-5.2529-5.8078-12.487-9.7564-16.984-16.154-7.6231-4.1008-14.682-9.1903-21.682-14.281-4.9626-3.8606-9.9684-7.6961-15.852-9.9766-12.375-8.3502-25.595-15.319-38.76-22.322-22.963-11.989-45.738-24.36-69.039-35.686-18.714-9.8425-38.401-17.854-56.537-28.775-5.6899-1.9708-4.7633-7.3519-5.7383-12.125 0.42612-11.66 4.0749-22.935 7.7129-33.936 4.4598-11.171 7.4236-23.142 14.324-33.158 1.6394-5.5695 5.8154-9.8236 8.5508-14.852 3.3477-3.5999 3.7497-12.337 9.3164-12.482zm261.76 0.0703c0.44217 0.029 0.91034 0.60173 1.3691 1.9785 2.8246 14.451 3.0843 29.268 3.4414 43.947 0.0429 4.4716 0.0545 8.9469-0.084 13.418 0.0373 2.5597-0.27757 12.692-2.9648 9.6191-0.74782-10.884-0.61845-21.813-1.4258-32.697-0.17141-9.2166-2.5624-18.213-2.6524-27.424-0.5278-2.0941 0.73717-8.9453 2.3164-8.8418zm14.262 0.45117c1.2468-0.0903 2.1449 0.70712 1.0644 3.1309-0.52817 0.9047-1.6007 1.5851-2.6719 1.3086-3.5193-1.6707-0.47055-4.2889 1.6074-4.4394zm-275.68 6.6328c-0.72061-0.0873-1.474 0.27293-1.8164 1.5449 0.2041 0.52313 0.94117 0.43109 1.3516 0.57422 3.4743 0.42838 2.0501-1.927 0.46485-2.1191zm278.86 3.5879c3.2981 3.4792 5.805 8.9385 7.7559 12.855-0.44582 0.97269-1.7223 1.7296-2.6719 0.89453-2.6414-3.3899-8.1492-10.266-5.084-13.75zm-268.24 0.39844c-2.5447-0.15017-5.224 1.7816-1.7363 4.7832 1.2572 1.005 3.6745 1.86 4.4668-0.17773 1.1456-3.1128-0.75122-4.4887-2.7305-4.6055zm281.37 4.4648c0.39171-0.021 0.78466 0.36371 1.0703 1.4316l-0.11328 0.85742-0.30274 0.70312c-3.4489 2.3219-2.0533-2.9172-0.6543-2.9922zm-272.22 1.0742c-2.2228 0.12018-4.2818 3.0116-1.5801 5.5234 2.2039 2.4113 6.4555 0.73403 4.6367-2.6641-0.48798-1.889-1.5329-2.718-2.6113-2.8457-0.14829-0.0176-0.29712-0.0217-0.44531-0.0137zm256.95 4.4336c3.2845 0.93234 5.2732 7.7337 6.4199 11.479l-0.18164 0.42578-0.48633 0.37696c-6.9341 3.1089-5.9888-8.1741-5.752-12.281zm-246.94 3.2676c-2.4767-0.0658-4.6274 1.3883-2.2891 5.2617 1.2186 1.1388 3.125 1.1268 4.6152 0.6211 4.5826-3.2004 0.85809-5.7982-2.3262-5.8828zm9.3242 3.3711c-3.2847 0.19385-5.1784 5.4818-1.2969 7.3672 3.9662 1.9266 8.8967-6.2858 1.9707-7.3359-0.23004-0.0349-0.45482-0.0442-0.67383-0.0312zm232.7 4.252c0.38272 0.0378 0.85208 0.22459 1.4121 0.62696-2.7242 4.216-3.6501-0.30728-1.7656-0.61719 0.10869-0.0179 0.22594-0.0214 0.35351-0.01zm21.445 2.793c3.5241 0.22007 0.15369 5.3921-2.9297 6.1445-2.1658 1.193-4.5894 2.5361-7.1524 2.2637-4.0329-3.6712 4.907-7.322 8.1289-8.1719 0.80584-0.19796 1.4497-0.26777 1.9531-0.23633zm-246.48 0.0762c-3.8585 3.3184 0.43612 8.7677 4.5332 8.2988 2.6668-0.93253 2.5767-3.2861 1.9082-5.916-2.1081-1.7594-3.5475-2.4015-6.4414-2.3828zm10.084 6.1738c-3.3916 0.0913-3.5005 3.3015 0.27149 5.4707 5.3085 3.0528 7.7058-3.3382 2.5938-4.9844-1.125-0.36226-2.0826-0.50739-2.8652-0.48633zm215.27 0.14649c0.0376-9e-3 0.0777-6e-3 0.11914 0.01 0.55285 0.20479 1.4132 2.4361 1.5137 3.916l0.17187 0.83203c0.62456 6.1032-3.2782 0.56852-2.1191-2.3281-0.10408-1.6945 0.0516-2.3695 0.31446-2.4297zm-203.92 5.9355c-1.925 0.019-3.7507 1.2085-2.8789 3.9766 0.81129 2.1368 3.7777 2.5806 5.2617 0.88867 2.7295-2.9784 0.0922-4.8897-2.3828-4.8652zm10.48 6.4707c-2.2116-0.1468-4.3671 0.87901-3.252 3.8809 1.1652 1.6163 3.5929 1.4163 5.2344 0.79492 3.7972-2.3593 0.86103-4.487-1.9824-4.6758zm8.1035 6.1172c-1.4997-0.0459-2.3995 0.98712-0.8164 4.041 0.70697 0.83281 1.7459 1.3961 2.8438 1.4609 5.8822-1.3953 0.83565-5.4143-2.0274-5.502zm185.82 3.7051c0.27806-7.6e-4 0.51788 0.50946 0.60938 1.8984l-0.10742 0.82617c-2.9813 3.7914-1.495-2.7219-0.50196-2.7246zm-176.15 1.7266c-2.1256-0.0621-3.9852 1.1998-2.7637 4.4277 1.0019 2.4295 4.4466 2.335 6.2852 1.0195 2.3817-3.0971-0.78859-5.3674-3.5215-5.4473zm219.35 2.3887c3.2228 0.17333-0.8602 5.6402-3.6504 6.0254-2.5365 1.0329-5.289 2.704-8.1211 2.3066 0.13108-4.2073 6.3697-6.2967 9.918-8.0527 0.7837-0.22162 1.3931-0.30406 1.8535-0.27929zm-44.566 4.5469 0.27344 0.47852 0.11328 0.67187c-0.0464 4.694-2.4679-0.50434-0.38672-1.1504zm-165.76 0.18555c-2.5516-0.10255-4.5038 1.0736-1.6543 4.1992 1.4316 1.5782 3.7781 3.3423 5.5469 1.1035 3.6607-2.9269-0.61193-5.1709-3.8926-5.3027zm11.154 5.9258c-3.123 0.0608-7.5366 3.4342-2.1035 5.9141 4.4843 0.98344 4.9394-3.6451 3.9219-5.375-0.4465-0.39044-1.0977-0.5531-1.8184-0.53906zm153.67 1.8242c0.65192 0.0386 0.69196 3.0563 0.14258 4.7226-0.65386 3.6271-1.4127 7.4068-3.5234 10.504-2.0713-1.8742 0.81716-9.4331 2.1113-13.025 0.55093-1.6208 0.9732-2.2187 1.2695-2.2012zm-146.75 5.1035c-1.179 0.0972-2.1035 1.1068-2.0215 3.6719-0.21499 1.9606 1.6983 3.0835 3.4375 2.7207 6.2664-0.93146 1.5971-6.641-1.416-6.3926zm8.9004 5.8379c-1.5042-0.0855-2.6593 0.94518-1.9394 4.0332 0.53503 1.4873 2.1906 2.3828 3.7285 2.1387 5.2227-1.773 1.0826-6.0087-1.7891-6.1719zm10.664 7.1836c-2.1126-0.16108-3.9715 1.1087-1.7891 3.9746 1.1251 1.7821 3.9081 3.2334 5.0957 0.63281 1.1724-2.8544-1.194-4.4463-3.3066-4.6074zm116.78 0.87304 0.27539 0.48047 0.11133 0.67188c-0.0464 4.694-2.4679-0.50628-0.38672-1.1524zm73.32 2.7871c5.314 0.42232-2.4205 6.8454-4.8926 7.5547-1.6472 0.64863-6.781 3.9817-6.9082 0.10352 2.579-3.9528 7.4795-6.0185 11.801-7.6582zm-182.73 1.748c-1.179 0.0972-2.1055 1.1068-2.0234 3.6719-0.215 1.9606 1.6983 3.0835 3.4375 2.7207 6.2664-0.93147 1.599-6.641-1.4141-6.3926zm10.828 5.8516c-2.1987 0.076-4.7408 2.2654-3.875 5.4219 1.4742 3.1482 7.2884 3.1945 6.6191-1.2227 0.4696-3.0376-1.034-4.2583-2.7441-4.1992zm8.3945 6.666c-2.5518-0.0672-4.825 1.5982-3.4453 5.373 2.2004 1.9297 6.4705 1.6482 8.5586-0.3418 0.2678-3.1631-2.5615-4.9641-5.1133-5.0312zm10.748 8.6309c-2.3299-0.0637-4.5805 1.3537-2.3438 4.2676 1.1896 1.5702 3.8443 1.9591 5.1719 0.34961 1.9127-3.0086-0.49818-4.5535-2.8281-4.6172zm-202.15 4.5488c0.40603-0.0504 0.91463 0.15155 1.5449 0.68945 2.2904 6.5895 8.1604 11.471 10.07 18.258 7.0196 17.862 15.442 35.13 22.895 52.811 8.3787 20.327 17.738 40.829 20.148 62.92 0.92705 13.728 0.59038 28.086-4.6406 41.014-1.2614 3.0277-2.5321 6.1113-4.459 8.7891-4.8647 4.8051-3.9228-4.647-2.0996-7.2617 3.1416-7.3097 5.4014-15.049 5.4356-23.068 1.6114-21.23-4.2216-42.159-12.498-61.514-8.375-19.343-18.047-38.1-26.215-57.539-3.4362-8.3115-7.7688-16.281-10.727-24.77-0.84462-2.3822-1.6477-10.056 0.54492-10.328zm211.65 2.3535c-2.0229 0.021-3.9257 1.591-2.6777 4.666 0.90957 2.5222 5.4451 2.8818 6.0723-0.0391 0.77021-3.1206-1.3716-4.648-3.3945-4.627zm-197.85 2.3906c0.66325 8e-3 1.3469 0.41156 1.832 1.498-0.0138 0.70256-0.70412 1.1412-1.3008 1.3066-4.3232 0.70245-2.521-2.8291-0.53125-2.8047zm361.41 0.65234c7.0244 0.47918-0.54867 6.0328-3.5879 7-1.1346 0.26979-10.491 6.3191-10.234 2.6191 3.5843-4.3062 8.3856-8.0328 13.822-9.6191zm-153.02 4.01c-3.1528-0.14893-7.2286 3.395-3.6875 6.8301 2.4298 1.333 5.9157-0.44672 6.6543-3.0098 0.0828-2.6511-1.3153-3.7423-2.9668-3.8203zm-195.9 2.541c3.3959 1.2732 7.2142 1.9086 10.01 4.3516l0.27539 0.73633-0.2207 0.42968c-4.1126 0.31708-7.0774-3.1601-10.064-5.5176zm204.52 4.6094c-2.5447-0.15018-5.2221 1.7816-1.7344 4.7832 1.2572 1.005 3.6745 1.86 4.4668-0.17773 1.1456-3.1128-0.75319-4.4887-2.7324-4.6055zm-190.97 1.6641c2.2201-0.20234 7.4694 3.0012 9.2676 4.3887 0.99097 0.97451 2.5952 1.9121 2.9062 3.332-4.7004-1.3209-9.0192-4.3056-13.148-6.9726 0.10995-0.4737 0.46228-0.70135 0.97461-0.74805zm341.2 1.1504c1.1022-0.12213 3.8188 2.912 3.1855 4.9395 0.33461 4.368-2.7117-1.4946-3.2226-2.4258-0.63278-1.7508-0.46385-2.4582 0.0371-2.5137zm-141.34 2.8945c-2.462-0.17289-4.9718 1.7545-3.5156 5.3613 1.6831 1.8962 6.526 1.8341 7.2832-0.94726 0.0335-2.8747-1.8527-4.2796-3.7676-4.4141zm-183.04 4.3926c0.86113-0.11598 2.6565 0.30254 3.9082 1.1367 4.5795 2.3433 9.8541 4.315 13.217 8.2871-0.78447 2.7321-3.1231 0.84066-3.1992-1.0781-4.3051-1.4629-8.3751-3.8028-12.232-6.2793-2.4821-1.2994-2.5545-1.9504-1.6934-2.0664zm192.51 2.1504c-3.3306-0.21846-5.9186 4.3412-1.375 6.2188 4.3943 2.8468 8.3045-2.4439 3.7207-5.2129-0.76933-0.65107-1.5771-0.95544-2.3457-1.0059zm8.9258 7.3477c-2.3852-0.12761-4.3399 2.4835-1.2676 5.125 2.2 2.1438 7.9244 0.27478 4.3555-3-0.83136-1.4442-2.0037-2.067-3.0879-2.125zm136.28 4.4863c2.7205 3.2612-5.0439 6.7744-8.002 8.3144-0.80703 0.52976-12.766 5.4854-8.0527 0.0937 4.6618-3.8036 10.102-7.2169 16.055-8.4082zm-307.6 1.0996c2.0058-0.0416 6.4251 1.4982 7.3477 2.6113 0.89891 0.60364 1.779 1.2682 2.4668 2.1133 0.21445 3.6708-7.5206-1.1839-9.541-2.5078-1.8112-1.597-1.4769-2.1918-0.27344-2.2168zm180.02 1.6191c-0.89012 0.0426-1.6173 0.74682-1.6309 2.5664-0.16818 1.4349 0.74002 3.2049 2.4805 2.5664 4.7662-1.0216 1.4251-5.2418-0.84961-5.1328zm9.8066 6.5957c-2.2206 0.0143-4.0864 1.4496-1.9863 4.9492 1.2364 1.1046 3.1149 1.1254 4.625 0.67969 3.6567-3.3166 0.21645-5.6472-2.6387-5.6289zm9.5606 6.5098c-1.5577 0.0846-2.8606 1.4817-2.0938 4.252 0.69095 2.8384 6.9614 3.1609 5.7188-0.63086-0.25452-2.4777-2.0673-3.7057-3.625-3.6211zm-178.55 1.2188c0.0841-0.013 0.17529-0.012 0.27149 0 1.2827 0.16042 3.5748 2.4078 4.9922 3.1445 6.2404-0.33074 7.7185 5.8269 7.2695 10.943-0.28956 31.784-3.6886 63.449-4.2226 95.229-0.45162 5.7731 0.63965 12.172-1.6094 17.611-2.6117 2.2362-6.3171 0.19997-9.4023 0.0371 0.67261-41.408 0.97558-82.825 2.1602-124.22-0.3186-1.9107-0.0475-2.6516 0.54101-2.7422zm186.6 6.0312c-1.2326 0.0895-2.0427 1.1684-1.2969 3.9473 0.49907 1.4184 1.9602 2.5256 3.502 2.2852 5.2643-1.8339 0.50655-6.4294-2.2051-6.2324zm9.6094 6.6797c-1.813 0.11688-3.376 2.5346-1.541 4.9004 2.0202 3.5605 6.7808 0.84088 4.2402-2.5996-0.54808-1.5208-1.4456-2.1958-2.334-2.293-0.12216-0.0134-0.24437-0.0146-0.36523-8e-3zm107.17 2.6992c1.1534 0.0123 2.2062 0.35553 3.0293 1.1562-1.6656 2.1689-11.646 9.5942-12.682 4.2227 1.8212-2.4768 6.1922-5.4157 9.6523-5.3789zm-96.738 6.1074c-1.3351 0.0689-2.387 1.0468-1.6699 3.4609 0.75459 1.2567 2.4472 1.8453 3.8106 1.2988 3.0949-2.4677 0.0846-4.8746-2.1406-4.7598zm9.418 5.7324c-1.8125 0.11494-3.5188 1.4301-2.7168 4.1914 0.69678 2.1927 3.7614 2.5001 5.1328 0.8086 2.4203-3.3104-0.0857-5.1478-2.416-5zm9.791 8.1445c-1.833-0.0896-3.4923 0.99884-2.373 3.8828 1.0173 1.4643 3.2391 1.7476 4.7676 0.99023 2.6064-2.695-0.0378-4.7579-2.3945-4.873zm8.5508 6.8535c-0.97665-0.10239-1.6507 0.73052-1.2207 3.3477l0.53515 0.92969 0.73242 0.66601c6.9212 1.6887 2.4492-4.6817-0.0469-4.9434zm9.5195 5.8926c-0.78982 0.0617-1.2523 0.90693-0.81641 3.125l0.52344 0.90234 0.72656 0.65821c7.2412 1.9957 1.9359-4.8707-0.43359-4.6856zm63.654 1.4394c-1.0575 0.0825-2.0386 0.87809-2.3184 2.8262-0.72728 2.4478 2.1715 2.7677 3.7793 2.291 3.5643-2.03 0.86553-5.2987-1.4609-5.1172zm-52.562 5.7617c-1.1433-0.0416-2.1371 0.61185-1.7051 2.4629 0.57204 0.86612 1.6932 1.6122 2.7637 1.209 3.1689-1.6021 0.84687-3.6026-1.0586-3.6719zm47.334 2.584c-2.6432-0.19452-5.3665 1.4193-3.502 5.2051 0.65909 4.1151 4.9074 3.4266 6.5215 0.44141 2.1868-3.448-0.37637-5.452-3.0195-5.6465zm-37.107 0.74414c-0.1748-0.011-0.35002-8e-3 -0.52539 8e-3 -2.3383 0.20873-4.5577 2.6896-2.1602 4.7852 1.9702 1.7968 8.0632 2.1686 5.5254-2.1328-0.45218-1.8251-1.6162-2.5831-2.8398-2.6602zm10.023 3.5391c-1.1543 0.0115-1.8423 0.8913-0.92969 3.3379 0.49674 1.2541 1.9365 1.7999 3.1914 1.7949 5.0676-0.97666 0.27777-5.1581-2.2617-5.1328zm13.684 1.1523c-1.1556-0.0595-2.203 0.68918-2.3848 2.8516-0.22399 1.9923 1.7016 3.2017 3.5 2.791 4.4911-1.4735 1.427-5.5118-1.1152-5.6426z"/>
 </g>
</svg>
