<?xml version="1.0" encoding="UTF-8"?>
<svg viewBox="0 0 558.29 501.18" xmlns="http://www.w3.org/2000/svg">
 <g fill-rule="evenodd">
  <g stroke="#000" stroke-miterlimit="10" stroke-width=".036">
   <path d="m81.336 242.87c0 134.1 88.632 242.86 197.96 242.86 109.3 0 197.93-108.76 197.93-242.86s-88.632-242.86-197.93-242.86c-109.33 0-197.96 108.76-197.96 242.86z"/>
   <path d="m85.548 243.31c0 131.87 87.12 238.82 194.58 238.82s194.58-106.96 194.58-238.82c0-131.9-87.12-238.86-194.58-238.86s-194.58 106.96-194.58 238.86z" fill="#e8ccba"/>
   <path d="m98.724 199.42c-1.224-4.86-3.42-8.316-6.732-10.8s-7.776-3.816-12.996-3.852c-5.364-0.108-13.608-0.28801-18.756 3.348-5.256 3.6-9.396 9.936-12.276 18.036-3.024 7.992-5.616 19.8-5.292 29.592 0.288 9.756 2.304 21.132 7.452 28.151 5.076 6.912 16.992 11.341 23.112 12.744 5.94 1.116 9.54-1.979 12.744-5.544 3.168-3.6 5.076-8.892 6.012-15.876l6.732-55.799z"/>
  </g>
  <path d="m92.712 259.33c-0.576-1.836-1.296-2.593-2.16-2.412-0.864 0.25198-1.908 1.403-3.132 3.6-1.44 2.124-2.988 6.408-5.04 8.676-2.124 2.088-3.708 3.889-6.984 3.853-3.384-0.17999-8.388-1.98-12.492-4.572-4.14-2.736-9.216-6.372-12.024-11.052-2.952-4.752-4.5-10.404-5.076-17.1-0.324-1.224-0.108-4.032 0.504-8.424 0.612-4.536 1.548-12.312 3.348-18.036 1.764-5.904 3.996-12.276 6.984-16.344 2.952-4.068 6.48-6.624 10.584-7.956 3.888-1.512 9.54-0.972 13.212-0.72 3.528 0.17999 6.192 0.828 8.424 1.944 2.124 1.08 3.78 2.52 4.824 4.32 1.044 1.62 0.684 4.644 1.44 5.76 0.684 1.044 1.512 1.332 2.628 0.71999 1.008-0.71999 2.088-1.98 3.384-4.32-2.808 20.663-5.616 41.363-8.424 62.063z" fill="#e8ccba"/>
  <g stroke="#000" stroke-miterlimit="10" stroke-width=".036">
   <path d="m87.924 211.23c-0.504-1.512-3.132-4.104-5.544-5.292-2.556-1.332-6.192-2.772-9.396-1.944-3.348 0.79199-7.236 2.7-9.864 6.984-2.664 4.284-5.004 11.808-5.508 18.288-0.576 6.408 0.035999 15.444 2.376 19.728 2.304 4.104 7.776 5.184 11.556 5.041 3.6-0.28801 9.072-4.464 10.584-6.264 1.368-1.872 0.108-4.788-1.692-4.572-1.836 0.17999-6.228 5.076-8.892 5.796-2.844 0.612-5.472-0.108-7.2-2.16-1.728-2.196-2.664-5.796-2.664-10.368-0.071999-4.68 0.828-12.636 2.412-17.064 1.476-4.464 4.32-7.992 6.732-9.612 2.376-1.764 5.22-1.332 7.704-0.504 2.376 0.828 5.076 4.86 6.732 5.292 1.512 0.21501 3.096-1.873 2.664-3.349z"/>
   <path d="m463.4 201.51c1.188-4.824 3.384-8.388 6.731-10.836 3.276-2.52 7.597-3.744 12.96-3.816 5.328-0.108 13.536-0.28799 18.792 3.348 5.185 3.6 9.217 9.936 12.24 18.036 2.916 7.992 5.508 19.8 5.292 29.592-0.396 9.756-2.412 21.132-7.452 28.152-5.184 6.911-17.136 11.34-23.075 12.743-6.049 1.116-9.648-1.979-12.744-5.544-3.204-3.6-5.112-8.892-6.013-15.876l-6.731-55.799z"/>
  </g>
  <path d="m469.42 261.41c0.54001-1.836 1.26-2.592 2.16-2.412 0.75601 0.25198 1.8 1.404 3.132 3.6 1.404 2.124 2.952 6.408 5.04 8.676 2.052 2.089 3.601 3.889 6.984 3.853 3.275-0.18002 8.315-1.98 12.492-4.572 4.031-2.7 9.144-6.443 12.023-11.088 2.916-4.788 4.428-10.332 5.076-17.064 0.28802-1.224 0.072021-4.032-0.50403-8.424-0.71997-4.536-1.6559-12.312-3.349-18.036-1.8-5.904-4.031-12.276-6.983-16.344-3.061-4.068-6.588-6.624-10.584-7.956-4.068-1.512-9.648-0.972-13.248-0.72-3.636 0.17999-6.3 0.828-8.424 1.944-2.269 1.08-3.816 2.52-4.788 4.32-1.152 1.62-0.75598 4.644-1.44 5.76-0.75598 1.044-1.691 1.332-2.664 0.72-1.044-0.72-2.159-1.98-3.348-4.32 2.809 20.663 5.617 41.363 8.425 62.063z" fill="#e8ccba"/>
  <g stroke="#000" stroke-miterlimit="10" stroke-width=".036">
   <path d="m474.2 213.32c0.43198-1.512 3.024-4.104 5.544-5.292 2.448-1.332 6.12-2.772 9.36-1.944 3.275 0.79199 7.164 2.7 9.863 6.984 2.521 4.284 4.969 11.808 5.545 18.288 0.46802 6.408-0.108 15.444-2.412 19.728-2.448 4.104-7.813 5.184-11.521 5.04-3.708-0.28801-9.18-4.464-10.584-6.264-1.404-1.872-0.25198-4.788 1.656-4.572 1.728 0.18001 6.192 5.077 8.928 5.796 2.7 0.53999 5.472-0.145 7.2-2.196 1.656-2.232 2.484-5.724 2.628-10.332-0.072021-4.68-0.86401-12.636-2.376-17.064-1.548-4.572-4.392-7.92-6.732-9.648-2.483-1.8-5.327-1.26-7.703-0.468-2.484 0.828-5.148 4.86-6.732 5.292-1.62 0.216-3.204-1.872-2.664-3.348z"/>
   <path d="m167.3 428.27c-3.42-2.735-10.98-11.447-15.732-17.243-4.932-5.94-11.268-14.761-12.636-17.568-1.26-2.808 1.944-2.16 5.04 0.828 3.024 2.952 8.136 11.124 12.816 16.74 4.464 5.399 12.708 13.176 14.472 16.092 1.692 2.844-0.64801 3.78-3.96 1.151z"/>
   <path d="m173.96 433.35c0.648 1.188 4.32 4.645 5.616 5.112 1.188 0.216 2.304-2.052 1.692-3.204-0.756-1.224-4.716-3.312-5.904-3.636-1.26-0.36002-2.196 0.53998-1.404 1.728z"/>
   <path d="m132.53 383.78c0.324 1.26 2.988 5.76 4.104 6.407 1.08 0.54001 2.736-1.368 2.448-2.664-0.468-1.439-3.672-4.428-4.752-5.075-1.224-0.612-2.196-0.036011-1.8 1.332z"/>
   <path d="m401.27 421.22c3.275-2.771 10.979-11.376 15.768-17.208 4.716-5.939 11.232-14.76 12.6-17.568 1.152-2.808-2.016-2.159-5.039 0.828-3.097 3.024-8.244 11.053-12.816 16.704-4.572 5.508-12.816 13.104-14.472 16.128-1.766 2.879 0.574 3.708 3.959 1.116z"/>
   <path d="m394.64 426.33c-0.828 1.188-4.429 4.644-5.652 5.111-1.26 0.25198-2.412-2.124-1.656-3.239 0.64798-1.225 4.608-3.313 5.904-3.637 1.152-0.25201 2.087 0.46899 1.404 1.765z"/>
   <path d="m436.04 376.72c-0.43201 1.26-3.096 5.76-4.104 6.408-1.152 0.54001-2.88-1.368-2.412-2.664 0.43198-1.368 3.492-4.392 4.716-5.04 1.116-0.68399 2.088-0.071991 1.8 1.296z"/>
  </g>
  <path d="m279.16 316.89c-3.456-3.312-8.856-5.22-16.488-6.012-7.812-0.75598-17.136 4.932-29.232 1.512-12.204-3.563-30.096-11.88-42.696-22.464-12.636-10.8-22.536-27.18-32.22-41.22-9.684-14.184-18.072-28.044-25.452-42.696 2.16-9.18 2.52-16.632 1.476-22.5-1.152-5.94-3.852-10.044-8.244-12.708 3.06-1.728 4.428-4.104 4.5-7.524-0.072006-3.456-1.44-7.56-4.5-12.708 7.452-7.848 11.7-16.668 12.744-27 1.008-10.476-0.14401-27-6.66-34.452-6.732-7.488-17.568-10.548-33.048-9.72-8.856-8.748-15.66-13.608-20.952-15.012-5.292-1.332-8.748 0.828-10.512 6.768-6.624-8.532-12.888-13.536-19.476-15.012-6.66-1.512-15.552 2.952-19.476 6.012-3.852 3.06-5.148 6.876-3.744 11.988-13.212 5.112-21.024 11.556-23.976 19.476-2.844 7.992-0.648 16.956 6.732 27.72-6.012 5.652-8.46 11.556-7.488 18s5.472 12.996 13.5 20.196c-4.032 9.936-4.536 18.792-1.512 27 3.024 8.136 12.204 17.46 19.476 21.708 7.164 4.176 14.76 5.04 23.22 2.988 3.348 5.4 7.848 8.352 13.5 9 5.652 0.54001 12.348-1.08 20.232-5.256-2.304 6.192-3.06 10.764-2.268 14.256 0.792 3.384 2.916 5.328 6.768 5.976-11.412 13.824-17.856 28.836-19.476 45.72-1.656 16.92 1.584 34.776 9.72 54.684-11.016 19.08-13.212 36.36-6.732 53.208 6.624 16.74 21.528 31.896 45.684 46.44 4.284 10.548 9.9 20.16 17.244 29.232 7.272 9.071 15.084 19.8 26.208 24.695 11.124 4.681 24.084 5.977 39.708 3.744 10.728 5.652 20.448 8.353 29.988 8.244 9.396-0.25201 15.192-7.452 26.28-8.964 11.124-1.548 29.412-1.548 39.708 0 10.151 1.512 12.312 8.712 20.916 8.964 8.567 0.108 18.324-2.592 29.952-8.244 15.588 2.232 28.548 0.93701 39.708-3.744 11.052-4.896 18.828-15.624 26.244-24.695 7.344-9.072 12.852-18.685 17.207-29.232 24.084-14.544 39.097-29.7 45.721-46.44 6.479-16.848 4.284-34.128-6.732-53.208 8.064-19.907 11.305-37.764 9.72-54.684-1.655-16.884-8.1-31.896-19.476-45.72 3.744-0.648 5.94-2.592 6.732-5.976 0.75601-3.492-0.03598-8.064-2.232-14.256 7.956 4.176 14.508 5.796 20.232 5.256 5.651-0.648 10.044-3.6 13.464-9 8.388 2.052 16.092 1.188 23.256-2.988 7.164-4.248 16.38-13.572 19.476-21.708 2.988-8.208 2.484-17.064-1.512-27 7.992-7.2 12.492-13.752 13.5-20.196 0.93604-6.444-1.512-12.348-7.488-18 7.345-10.764 9.54-19.728 6.732-27.72-2.988-7.92-10.836-14.364-23.977-19.476 1.368-5.112 0.07196-8.928-3.743-11.988-4.032-3.06-12.889-7.524-19.477-6.012-6.624 1.476-12.888 6.48-19.476 15.012-1.8-5.94-5.256-8.1-10.513-6.768-5.327 1.404-12.168 6.264-20.951 15.012-15.48-1.872-26.173 0.828-32.904 8.244-6.624 7.416-7.92 25.272-6.804 35.928 1.044 10.548 5.147 19.368 12.708 27-3.024 5.148-4.464 9.252-4.464 12.708 0 3.42 1.439 5.796 4.464 7.524-4.429 2.664-7.128 6.768-8.244 12.708-1.152 5.868-0.64798 13.32 1.512 22.5-7.416 14.652-15.804 28.512-25.452 42.696-9.684 14.04-19.728 30.42-32.22 41.22-12.636 10.584-30.672 18.9-42.732 22.464-12.06 3.42-21.6-2.268-29.195-1.512-7.667 0.79202-13.068 2.7-16.488 6.012z"/>
  <path d="m278.47 322.87c-3.456-3.204-8.856-5.292-16.488-5.977-7.812-0.72-17.136 4.86-29.232 1.477-12.204-3.564-30.096-11.88-42.696-22.464-12.528-10.801-21.6-26.028-32.22-41.221-10.728-15.264-20.988-31.464-31.464-49.428 2.088-9.144 2.592-16.632 1.512-22.464-1.152-5.904-3.852-10.152-8.244-12.744 3.06-1.656 4.428-4.104 4.5-7.488-0.071999-3.42-1.44-7.668-4.5-12.744 7.344-8.136 11.592-16.848 12.744-26.964 1.116-10.08-0.28801-26.712-6.012-32.976-5.904-6.336-15.12-7.704-28.476-4.5-7.38-8.172-13.572-12.78-18.72-14.22-5.148-1.368-9.144 0.576-11.988 5.976-5.292-8.603-10.692-13.895-16.488-15.731-5.904-1.98-15.408 2.016-17.964 4.5-2.52 2.556-1.476 5.868 2.988 10.476-15.444 5.292-24.84 11.7-28.476 19.512-3.6 7.776-1.44 16.668 6.768 26.964-5.868 4.788-8.424 9.937-7.524 15.732 0.936 5.724 5.004 11.916 12.744 18.72-4.572 10.728-4.932 19.692-1.476 27.72 3.456 7.884 15.48 16.092 22.464 19.476 6.876 3.204 13.068 3.204 18.72 0 3.24 7.344 7.74 11.088 13.5 11.232 5.832 0.108 12.636-3.384 20.988-10.476-1.908 8.208-2.16 14.472-0.756 19.476 1.332 4.896 4.32 8.1 8.964 9.756-15.012 16.092-22.968 32.292-24.696 49.428-1.62 17.1 3.276 34.308 14.976 52.452-12.744 17.964-16.236 34.416-10.476 50.184 5.868 15.696 20.52 29.988 44.928 43.452 2.808 8.315 7.848 16.632 14.976 25.488 7.128 8.855 17.028 21.779 27.756 26.964 10.728 5.04 22.428 5.903 35.928 2.987 10.116 6.12 19.584 9.072 29.232 9 9.54-0.25201 16.74-8.136 27.72-9.756 10.944-1.655 27.18-1.655 37.476 0 10.08 1.62 14.437 9.504 23.221 9.756 8.747 0.071991 18.432-2.88 29.195-9 13.428 2.916 25.236 2.053 35.964-2.987 10.692-5.185 20.448-18.108 27.721-26.964 7.199-8.856 12.023-17.173 15.012-25.488 24.912-15.084 40.212-30.384 46.44-46.44 6.083-16.199 2.88-32.363-9.757-49.464 10.729-19.8 15.229-37.656 13.5-54.684-1.872-16.956-9.684-32.292-23.976-46.44 4.752-0.504 7.704-2.952 9-7.488 1.152-4.608 0.79199-10.908-1.512-19.476 9.323 6.408 17.063 9.252 23.22 8.964 6.084-0.468 10.584-4.068 13.5-11.232 5.616 3.204 11.808 3.204 18.72 0 6.876-3.384 18.864-11.592 22.5-19.476 3.456-8.028 2.952-16.992-1.512-27.72 7.668-6.804 11.771-12.996 12.744-18.72 0.828-5.796-1.62-10.944-7.488-15.732 8.1-10.296 10.296-19.188 6.732-26.964-3.672-7.848-13.068-14.148-28.477-19.476 4.428-4.536 5.473-7.992 2.988-10.512-2.556-2.556-11.88-6.516-17.964-4.5-6.156 2.016-12.349 7.416-18.72 16.488-1.261-5.94-4.465-8.136-9.757-6.732-5.363 1.404-12.42 6.3-21.743 14.976-13.32-3.204-22.608-1.836-28.44 4.5-5.796 6.264-7.2 22.896-6.012 32.976 1.08 10.116 5.327 18.828 12.743 26.964-3.096 5.076-4.464 9.324-4.5 12.744 0.036011 3.384 1.404 5.832 4.5 7.488-4.428 2.592-7.128 6.84-8.243 12.744-1.152 5.832-0.64798 13.32 1.512 22.464-9.937 20.016-20.088 37.368-30.744 53.172-10.692 15.732-20.376 30.24-32.94 40.464-12.852 9.973-30.6 16.416-42.695 19.477-12.204 2.88-21.492-2.196-29.232-1.477-7.668 0.68399-13.067 2.772-16.488 5.976z" fill="#fff"/>
  <path d="m211.8 245.72c-12.24 4.68-28.512 13.032-38.952 21.708-10.368 8.496-21.06 19.404-22.5 29.232-1.368 9.828 4.176 21.924 14.256 29.195 10.116 7.164 29.736 14.58 45.684 13.5 15.876-1.403 36.504-13.68 48.708-20.987 11.988-7.416 19.872-16.021 23.22-22.464 3.168-6.444-3.959-10.765-3.744-15.732 0.216-5.04 6.408-8.676 5.256-14.22-1.368-5.652-6.264-15.156-12.744-19.477-6.732-4.392-16.272-6.696-26.244-6.768-9.972-0.287-20.952 1.441-32.94 6.013z"/>
  <path d="m215.54 249.46c-11.124 4.5-29.016 13.355-38.952 21.708-10.008 8.316-19.944 18.72-20.232 27.72-0.252 8.856 9 19.765 18.72 25.488 9.792 5.688 25.092 9.864 38.952 8.244 13.716-1.836 32.112-12.708 42.696-18.72 10.44-6.084 16.812-11.736 19.512-17.244 2.556-5.58-4.068-10.729-3.78-15.732 0.324-5.04 6.84-8.82 5.256-14.256-1.8-5.652-9.864-14.94-15.732-18.72-5.976-3.744-11.772-4.068-19.476-3.744-7.884 0.28801-15.948 0.612-26.964 5.256z" fill="#fff"/>
  <path d="m344.42 247.95c12.168 4.644 28.44 13.14 38.952 21.744 10.296 8.532 20.988 19.332 22.5 29.196 1.26 9.828-4.284 21.888-14.256 29.232-10.224 7.164-29.844 14.58-45.684 13.5-15.984-1.404-36.612-13.681-48.708-20.988-12.097-7.416-19.98-16.02-23.22-22.464-3.24-6.48 3.888-10.764 3.744-15.768-0.324-5.04-6.48-8.677-5.256-14.221 1.26-5.651 6.156-15.156 12.744-19.476 6.624-4.428 16.164-6.624 26.244-6.732 9.865-0.25101 20.844 1.369 32.94 5.977z"/>
  <path d="m340.68 251.69c11.016 4.536 28.907 13.356 38.951 21.744 9.9 8.316 19.836 18.721 20.232 27.721 0.17999 8.892-9.108 19.691-18.72 25.451-9.864 5.688-25.164 9.864-38.952 8.244-13.824-1.836-32.22-12.708-42.696-18.72-10.476-6.084-16.848-11.736-19.512-17.244-2.664-5.58 3.96-10.728 3.78-15.731-0.43301-5.076-6.913-8.748-5.256-14.221 1.728-5.651 9.756-14.939 15.732-18.72 5.868-3.744 11.664-4.068 19.476-3.744 7.776 0.14499 15.841 0.72099 26.965 5.22z" fill="#fff"/>
  <g stroke="#000" stroke-miterlimit="10" stroke-width=".036">
   <path d="m47.712 180.52c0.324-0.756 3.564 9.144 7.488 11.232 3.744 1.836 9.252 1.764 14.976 0.756 5.688-1.08 13.464-3.096 18.756-6.732 5.112-3.672 9.252-13.248 11.988-14.976 2.592-1.872 5.328 1.512 3.744 4.464-1.728 2.916-8.496 9.828-13.5 13.5-5.148 3.6-10.188 6.948-16.488 8.244-6.48 1.296-16.38 1.836-20.952-0.756-4.572-2.952-6.3-14.868-6.012-15.732z"/>
   <path d="m100.16 197.77c1.692-2.34 6.876-4.86 9.72-8.244 2.844-3.528 5.472-11.592 6.768-11.988 1.116-0.36 1.26 5.796 0 9.72-1.404 3.78-5.4 9.972-8.244 12.744-3.024 2.592-7.596 3.312-9 2.988-1.44-0.46799-1.044-2.952 0.756-5.22z"/>
   <path d="m118.13 210.51c-0.144 2.232 5.076 13.968 9 20.196 3.852 6.192 12.672 15.444 14.256 16.488 1.404 0.756-2.988-6.228-5.256-11.232-2.268-5.22-5.292-14.328-8.244-18.72-3.06-4.248-9.648-9.036-9.756-6.732z"/>
   <path d="m35.724 174.91c0 1.872 1.332 3.384 2.988 3.384s3.024-1.512 3.024-3.384-1.368-3.384-3.024-3.384-2.988 1.512-2.988 3.384z"/>
   <path d="m108.41 163.67c0 1.872 1.332 3.348 2.988 3.348s2.988-1.476 2.988-3.348-1.332-3.384-2.988-3.384-2.988 1.512-2.988 3.384z"/>
   <path d="m144.37 253.56c0 1.872 1.332 3.385 2.988 3.385s2.988-1.513 2.988-3.385-1.332-3.348-2.988-3.348c-1.656 0.001007-2.988 1.476-2.988 3.348z"/>
   <path d="m510.71 180.52c-0.396-0.756-3.672 9.144-7.488 11.232-3.815 1.836-9.359 1.764-14.976 0.756-5.652-1.08-13.644-3.096-18.72-6.732-5.221-3.672-9.36-13.248-11.988-14.976-2.736-1.872-5.328 1.512-3.744 4.464 1.62 2.916 8.424 9.828 13.464 13.5 5.04 3.6 10.116 6.948 16.488 8.244 6.336 1.296 16.344 1.836 20.988-0.756 4.5-2.952 6.121-14.868 5.976-15.732z"/>
   <path d="m458.29 197.77c-1.872-2.34-7.02-4.86-9.756-8.244-2.808-3.528-5.652-11.592-6.732-11.988-1.224-0.36-1.367 5.796 0 9.72 1.332 3.78 5.328 9.972 8.244 12.744 2.809 2.592 7.561 3.312 8.965 2.988 1.296-0.46799 1.008-2.952-0.72101-5.22z"/>
   <path d="m440.29 210.51c0.072021 2.232-5.147 13.968-9 20.196-3.996 6.192-12.672 15.444-14.22 16.488-1.404 0.756 2.844-6.228 5.256-11.232 2.232-5.22 5.112-14.328 8.208-18.72 2.952-4.248 9.576-9.036 9.756-6.732z"/>
   <path d="m522.7 174.91c0 1.872-1.332 3.384-2.988 3.384s-2.988-1.512-2.988-3.384 1.332-3.384 2.988-3.384 2.988 1.512 2.988 3.384z"/>
   <path d="m450.05 163.67c0 1.872-1.367 3.348-3.023 3.348s-2.988-1.476-2.988-3.348 1.332-3.384 2.988-3.384 3.023 1.512 3.023 3.384z"/>
   <path d="m414.08 253.56c0 1.872-1.368 3.385-2.987 3.385-1.692 0-3.024-1.513-3.024-3.385s1.332-3.348 3.024-3.348c1.619 0.001007 2.987 1.476 2.987 3.348z"/>
   <path d="m146.6 325.85c1.188 2.484 5.076 8.137 11.232 11.269 6.12 2.987 20.664 6.3 24.732 6.731 3.744 0.25198 2.268-2.735-1.512-4.5-3.816-1.728-15.984-3.204-20.952-5.976-5.076-3.024-6.732-9.972-9-11.269-2.34-1.367-5.652 1.225-4.5 3.745z"/>
   <path d="m294.96 331.11c2.664 2.845 8.353 7.885 14.977 11.232 6.516 3.132 17.892 6.372 23.976 7.488 6.012 0.936 13.248-0.25201 11.988-1.477-1.513-1.367-14.04-3.744-20.232-6.012-6.228-2.304-11.268-4.752-16.487-7.488-5.328-2.844-12.637-8.388-14.977-9-2.485-0.646-1.909 2.45 0.755 5.257z"/>
   <path d="m140.63 314.26c0 1.872 1.332 3.348 2.988 3.348s2.988-1.476 2.988-3.348-1.332-3.384-2.988-3.384-2.988 1.512-2.988 3.384z"/>
   <path d="m190.81 344.21c0 1.872 1.332 3.384 2.988 3.384s3.024-1.512 3.024-3.384c0-1.836-1.368-3.348-3.024-3.348s-2.988 1.512-2.988 3.348z"/>
   <path d="m317.42 352.85c-1.224-3.96-3.239-15.912-2.987-18.756 0.35898-2.916 3.204-2.412 4.5 1.512 1.115 3.925 2.376 18.757 2.231 21.744-0.35901 2.736-2.628-0.577-3.744-4.5z"/>
   <path d="m327.94 359.59c-1.261-3.996-3.24-15.84-3.024-18.72 0.36002-2.916 3.204-2.376 4.5 1.476 1.152 3.924 2.412 18.756 2.269 21.744-0.362 2.736-2.63-0.57599-3.745-4.5z"/>
   <path d="m151.14 456.86c2.304 3.024 7.56 8.82 13.824 12.673 6.156 3.779 17.1 8.063 23.112 9.792 5.832 1.476 13.284 1.044 12.096-0.324-1.368-1.368-13.716-5.22-19.548-7.956-5.904-2.809-10.8-5.868-15.66-9.036-5.076-3.348-11.7-9.612-14.04-10.44-2.376-0.97202-2.16 2.268 0.216 5.291z"/>
   <path d="m169.82 473.45c-1.224-3.996-3.24-15.84-2.988-18.721 0.36-2.808 3.204-2.483 4.5 1.513 1.116 3.852 2.376 18.72 2.232 21.708-0.36 2.735-2.628-0.57602-3.744-4.5z"/>
   <path d="m183.32 478.71c-1.224-3.996-3.24-15.84-2.988-18.72 0.36-2.916 3.204-2.376 4.5 1.476 1.116 3.924 2.376 18.756 2.232 21.744-0.36 2.736-2.628-0.57599-3.744-4.5z"/>
   <path d="m292.98 473.81c2.34 2.196 7.308 6.12 12.96 8.46 5.58 2.196 15.048 4.284 20.195 4.86 5.04 0.43201 10.908-0.936 9.828-1.872-1.26-1.044-11.844-2.376-17.027-3.852-5.185-1.62-9.576-3.24-14.004-5.256-4.645-2.017-10.836-6.265-12.889-6.624-1.979-0.35898-1.439 2.089 0.93701 4.284z"/>
   <path d="m311.84 482.38c-1.008-3.276-2.663-13.104-2.447-15.479 0.17999-2.377 2.664-2.017 3.708 1.224 0.93597 3.168 1.979 15.552 1.872 18-0.32498 2.23-2.161-0.505-3.133-3.745z"/>
   <path d="m320.56 487.96c-0.97299-3.276-2.772-13.104-2.484-15.48 0.17999-2.376 2.664-2.016 3.708 1.225 0.936 3.168 1.979 15.552 1.872 18-0.289 2.231-2.197-0.505-3.096-3.745z"/>
   <path d="m167.84 163.35c0 30.924 25.38 55.98 56.7 55.98 31.284 0 56.664-25.056 56.664-55.98s-25.38-55.979-56.664-55.979c-31.32-9.99e-4 -56.7 25.055-56.7 55.979z"/>
   <path d="m171.8 163.35c0 28.764 23.616 52.092 52.74 52.092s52.74-23.328 52.74-52.092-23.616-52.092-52.74-52.092-52.74 23.328-52.74 52.092z" fill="#f0f0f0"/>
   <path d="m278.26 163.35c0 30.924 25.379 55.98 56.7 55.98 31.284 0 56.664-25.056 56.664-55.98s-25.38-55.979-56.664-55.979c-31.32-9.99e-4 -56.7 25.055-56.7 55.979z"/>
   <path d="m282.22 163.35c0 28.764 23.616 52.092 52.74 52.092s52.74-23.328 52.74-52.092-23.616-52.092-52.74-52.092-52.74 23.328-52.74 52.092z" fill="#f0f0f0"/>
   <path d="m170.8 149.45c-7.992-1.656-15.3-3.06-21.924-4.212-6.696-1.224-12.708-2.196-18.036-2.916l-4.572 10.008c11.376 1.548 20.376 2.952 27.828 4.212 7.344 1.224 12.564 2.304 16.056 3.24 0.216-3.42 0.43201-6.876 0.64801-10.332z"/>
   <path d="m387.7 149.45c7.992-1.656 15.264-3.06 21.96-4.212 6.696-1.224 12.563-2.196 18-2.916l4.608 10.008c-11.377 1.548-20.484 2.952-27.864 4.212-7.309 1.224-12.708 2.304-16.057 3.24-0.215-3.42-0.431-6.876-0.64697-10.332z"/>
   <path d="m334.81 174.08c0 6.479-5.977 11.771-13.32 11.771-7.38 0-13.32-5.292-13.32-11.771 0-6.516 5.94-11.772 13.32-11.772 7.343 0 13.32 5.256 13.32 11.772z"/>
   <path d="m324.19 171.88c0 2.016-1.62 3.636-3.601 3.636-2.016 0-3.636-1.62-3.636-3.636s1.62-3.636 3.636-3.636c1.981 0 3.601 1.62 3.601 3.636z" fill="#fff"/>
   <path d="m233.47 176.13c0 6.624 5.94 12.024 13.32 12.024 7.344 0 13.32-5.4 13.32-12.024 0-6.66-5.976-12.024-13.32-12.024-7.38 0-13.32 5.364-13.32 12.024z"/>
   <path d="m240.2 173.93c0 2.016 1.62 3.636 3.6 3.636 2.016 0 3.636-1.62 3.636-3.636s-1.62-3.636-3.636-3.636c-1.98 0-3.6 1.62-3.6 3.636z" fill="#fff"/>
   <path d="m349.18 150.82c-2.808-2.376-8.46-5.832-12.924-7.992s-9.972-4.068-13.464-4.608c-3.563-0.612-7.056 0.035995-7.56 1.116-0.54001 1.116 1.439 3.78 4.392 5.22 2.952 1.188 8.712 0.864 12.96 2.484 4.14 1.548 8.496 4.896 11.556 6.984 2.916 1.908 4.608 4.572 6.049 4.932 1.332 0.28801 2.412-1.296 2.268-2.664-0.14401-1.476-0.68399-3.168-3.277-5.472z"/>
   <path d="m212.3 156.76c1.944-2.772 6.372-7.38 10.08-10.332 3.492-2.988 8.352-6.012 11.52-7.272 3.204-1.332 6.516-1.512 7.452-0.54001 0.68399 0.90001-0.324 3.96-2.736 5.868-2.484 1.872-8.208 2.664-11.628 5.148-3.6 2.376-6.768 6.48-9.072 9.108-2.268 2.556-3.204 5.148-4.356 5.976-1.296 0.576-2.628-0.756-2.88-2.052-0.36-1.404-0.28801-3.24 1.62-5.904z"/>
  </g>
 </g>
</svg>
