<?xml version="1.0" encoding="UTF-8"?>
<svg viewBox="0 0 500 500" xmlns="http://www.w3.org/2000/svg" xmlns:xlink="http://www.w3.org/1999/xlink">
 <defs>
  <linearGradient id="a">
   <stop stop-color="#cc955d" offset="0"/>
   <stop stop-color="#ffdf32" offset="1"/>
  </linearGradient>
  <linearGradient id="d" x1=".476" x2="-.024" y1=".54546" y2=".54545" spreadMethod="reflect">
   <stop stop-color="#cc5a5d" offset="0"/>
   <stop stop-color="#ffb712" offset="1"/>
  </linearGradient>
  <linearGradient id="e" x1=".48214" x2=".02976" y1=".48438" y2=".49219" xlink:href="#a" spreadMethod="reflect"/>
  <radialGradient id="c" cx=".12143" cy=".14062" r=".98214" xlink:href="#a"/>
  <radialGradient id="b" cx=".10666" cy=".07813" r=".81914" xlink:href="#a"/>
 </defs>
 <g stroke="#000" stroke-linejoin="round" stroke-width="10">
  <path transform="matrix(.8094 -.58726 .58726 .8094 -133.76 168.14)" d="m71.202 379.75c3.9558 64.082 393.2 47.468 384.49 3.955 20.57-16.614-258.7-80.696-384.49-3.955z" fill="url(#d)" fill-rule="evenodd"/>
  <path transform="matrix(.8094 -.58726 .58726 .8094 -112.63 202.66)" d="m170.1 371.84c-70.411 0-65.665-92.564-3.956-93.355 62.5 0 79.114 94.146 3.956 93.355z" fill="url(#c)" fill-rule="evenodd"/>
  <path transform="matrix(.8094 -.58726 .58726 .8094 -133.76 168.14)" d="m71.203 378.96c114.72-66.456 359.18-24.526 386.08 3.955-42.721-60.917-75.157-90.189-85.442-162.98-17.405-94.144-50.633-127.37-113.92-133.7-59.336 4.7464-90.981 21.36-103.64 113.13s-40.348 132.12-83.069 179.59z" fill="url(#e)" fill-rule="evenodd"/>
  <path transform="matrix(.8094 -.58726 .58726 .8094 -133.76 168.14)" d="m255.54 87.025c-32.437 0-36.392-37.975-3.956-41.139 33.228 0.7912 34.019 39.557 3.956 41.139z" fill="url(#b)" fill-rule="evenodd"/>
  <path d="m354.43 174.05c-31.646 0-153.48 36.392-185.92 126.58" fill="none"/>
 </g>
</svg>
