<?xml version='1.0' encoding='utf-8'?>
<svg xmlns="http://www.w3.org/2000/svg" enable-background="new 0 0 1779.3885 865.3684" version="1.1" viewBox="0 0 1779.3885 865.3684">
	<path d="m866.73 855.56c-2.3235-17.228-7.3017-33.141-17.3-47.178-15.007-21.069-36.071-32.876-61.085-36.016-59.389-7.4528-109.84 11.558-151.42 54.392-4.2972 4.4266-7.79 9.5414-11.104 14.757-3.3058 5.2023-5.9026 10.771-8.8391 17.243-0.6655-1.7637-1.1368-2.8324-1.4775-3.9412-22.132-72.016-81.131-114.14-156.8-112.1-35.334 0.9511-68.276 10.463-99.211 27.248-18.35 9.9569-32.52 24.721-45.765 40.5-8.8893 10.59-17.109 21.745-26.738 31.71-0.4543 0.4702-0.9865 0.8649-2.1018 1.8319-0.6034-2.3806-1.1001-4.3473-1.6003-6.313-10.359-40.707-29.678-76.044-63.503-101.91-43.679-33.398-92.678-40.591-145.27-27.196-19.991 5.0911-38.585 13.564-56.172 24.292-1.1356 0.6926-2.2624 1.4016-3.4238 2.0481-0.2378 0.1324-0.6125 0.0192-1.3333 0.0192 2.723-9.3115 6.4512-18.127 10.395-26.853 11.215-24.811 25.304-48.006 40.212-70.709 18.284-27.844 36.101-55.992 54.957-83.466 38.001-55.369 89.92-90.687 154.19-108.95 32.541-9.2494 65.399-13.964 99.209-10.865 31.578 2.8945 61.794 11.316 91.353 22.424 33.524 12.598 65.775 28.164 98.624 42.335 52.761 22.762 107.03 40.516 163.92 49.7 36.486 5.8905 73.188 7.7025 110.09 6.4385 3.4063-0.1167 4.0462-0.7082 3.0013-4.3458-3.1702-11.036-10.122-19.309-18.036-27.092-6.6505-6.5403-13.406-12.987-19.285-20.272-6.6649-8.2574-11.672-17.359-14.868-27.515-1.2656-4.0225-0.8101-5.1346 3.7603-4.3932 16.366 2.655 32.828 2.7385 49.319 1.0177 2.5469-0.2657 4.1027-1.1571 5.5715-3.3437 22.315-33.222 58.618-47.078 97.076-37.025 2.7935 0.7303 4.6909 0.1016 6.8528-1.417 13.127-9.2207 25.393-19.449 36.557-30.974 1.1172-1.1533 1.9132-2.6174 3.5385-4.8867 3.6002 10.799 4.7594 20.145 5.2333 29.602 0.635 12.676-0.7527 25.31-0.9142 37.973-0.0673 5.2735 0.298 10.24 3.4178 14.745 1.12 1.6172 1.7758 3.5707 2.5498 5.4103 3.1443 7.4734 3.1469 7.511 10.673 3.7382 28.445-14.26 51.604-35.127 73.209-58.071 33.863-35.96 58.294-78.038 80.101-121.89 19.714-39.646 37.696-80.149 58.876-119.07 19.503-35.837 41.047-70.31 70.682-98.787 44.441-42.705 96.66-70.4 158.17-79.02 41.266-5.7823 82.088-2.0908 122.54 7.0705 49.578 11.228 96.481 30.142 143.11 49.84 15.607 6.593 31.216 13.182 48.13 20.325-11.268 2.0317-21.286 3.7232-31.058 6.4819-40.421 11.411-75.198 31.723-100.38 65.988-31.847 43.329-37.781 91.326-23.537 142.44 4.5288 16.253 11.419 31.551 19.704 46.655-0.86 0-1.3513 0.1393-1.7107-0.0198-41.043-18.161-82.876-17.791-124.88-4.3768-47.852 15.282-87.102 42.714-114.83 85.181-15.678 24.01-23.955 50.414-22.73 79.374 0.8828 20.872 7.1415 40.192 17.241 58.359 0.5634 1.0135 1.1086 2.0374 1.6438 3.066 0.0684 0.1313 0.0248 0.3208 0.0334 0.4844-0.2614 0.1135-0.6088 0.3966-0.7726 0.3143-22.966-11.544-47.435-14.125-72.525-11.273-37.097 4.216-70.703 17.366-99.417 41.634-19.771 16.709-34.058 36.982-37.684 63.349-2.9113 21.172 2.6012 40.615 13.024 58.886 2.3778 4.1682 5.04 8.1741 7.7693 12.574-3.0303 0.6008-5.5056-0.4666-7.8416-1.4045-5.0901-2.0438-10.24-4.064-15.033-6.6999-16.977-9.3383-34.395-10.076-52.589-3.997-21.015 7.0219-39.382 18.502-56.53 32.224-1.7949 1.4363-2.6206 3.3668-3.4768 5.3651-4.7416 11.067-5.4607 22.935-6.85 34.652-2.0088 16.942-8.8922 25.894-23.122 29.541-7.6523 1.9611-14.828 0.6078-21.643-3.2638-6.8719-3.9043-12.625-9.234-18.533-14.364-7.4442-6.4639-15.066-12.63-24.377-16.309-3.1823-1.2577-6.2572-1.5936-9.7191-0.8506-37.765 8.1058-66.321 28.99-86.378 61.808-0.6476 1.0599-0.834 2.5468-2.8606 3.1226z"/>
</svg>