<?xml version="1.0" encoding="UTF-8"?>
<svg viewBox="0 0 744.09448819 1052.3622047" xmlns="http://www.w3.org/2000/svg">
 <path d="m187.24 460.65c-9.1726-1.7599-21.464-4.5814-36.305-3.5713-118.63 8.0745 51.889 47.588 61.5 19.376 4.0233-11.81-17.082-17.003-25.195-15.805z" fill="#b3b3b3"/>
 <path d="m350.81 551.38c12.622 27.292-22.009 18.347-27.315 21.531-8.9056 5.3441 24.579 2.483 30.047 4.1405 20.131 6.103 49.465 15.706 46.891 8.281-0.8957-2.5834-30.911-6.2939-31.412-9.9372-1.0279-7.4719 48.88 2.3762 45.07-4.5546-5.9275-10.782-38.26 4.9519-46.436-2.4843-1.8536-1.6859 18.645-2.9168 16.389-4.9686-6.6287-6.0288-17.874 4.4465-21.852-0.41406-1.2132-1.4821-5.9308-26.454-11.381-11.593z" fill="#f55"/>
 <path d="m294.79 532.43c34.345 28.284 46.467 33.335 52.528 28.284s25.254-8.0812 25.254-8.0812 6.061-17.173-2.0203-22.223-72.731 0-75.761 2.0203z" fill="#999"/>
 <path d="m453.72 487.26c9.9386-11.773 17.987-51.926 14.647-59.094-6.9275 9.6499-48.486 75.293-70.206 88.388 13.604 2.011 46.764-20.936 55.558-29.294z" fill="#666"/>
 <path d="m502.33 266.23c-6.7857 11.071-21.772 76.931-20.936 96.87 0.75939 18.123 2.5451 28.481 0.22183 44.558-5.4568 37.762-12.168 50.664-50.74 89.235-16.288 16.288-32.806 24.821-48.817 32.23-13.492 6.2433-51.046 22.23-95.332 17.944s-105.12-11.174-118.57-12.857c-85.726-10.729-91.376-32.534-91.167-32.733 8.7351-8.3174 52.061-16.849 79.32-26.358 16.409-5.7247 39.312-10.568 29.163-16.133-9.7833-5.3645-49.403-13.188-35.888-16.204 28.679-6.4011 31.216-7.9237 36.786-10 21.868-8.1522 19.736-9.7694 38.44-19.551 20.216-10.573 15.132-11.973 25.489-16.52 32.763-14.385 67.798-57.024 107.86-79.643 29.133-16.45 50.897-39.893 58.225-50.837 3.8558-5.7582 14.148-18.603 16.061-32.02 2.2654-15.888 12.104-31.756 31.429-34.286 18.662-2.4427 33.571-1.1835 42.857 8.5714 8.473 8.9011 6.2189 17.156 5.7143 27.143-1.1327 22.418-2.2654 18.092-10.112 30.592z" fill="#b3b3b3"/>
 <path d="m505.49 261.93c1.773 29.908-22.515 83.413-22.856 85.7-3.9328 26.343-70.321-59.837-119.44-32.843 25.562-16.45 37.851-30.444 52.434-47.092 4.5663-5.2128 9.898-13.665 15.347-32.735 4.4089-15.431 12.72-31.135 31.786-35.179 17.412-3.6927 36.245-0.79569 45.53 8.9592 8.473 8.9011 4.9742 18.018 4.4695 28.005-1.1327 22.418 0.58124 12.684-7.2654 25.184z" fill="#6c5353"/>
 <g transform="matrix(1.1779 0 0 1.178 1125.4 -434.73)" fill-rule="evenodd">
  <path d="m-546.43 568.08c0 4.9311-4.637 8.9286-10.357 8.9286s-10.357-3.9975-10.357-8.9286 4.637-8.9286 10.357-8.9286 10.357 3.9974 10.357 8.9286z" fill="#fff"/>
  <path transform="matrix(1.1454 0 0 1.1084 79.564 -62.406)" d="m-547.5 569.68c0 2.86-2.2786 5.1786-5.0893 5.1786s-5.0893-2.3185-5.0893-5.1786 2.2786-5.1786 5.0893-5.1786 5.0893 2.3185 5.0893 5.1786z"/>
  <path d="m-551.96 566.38c0 2.4162-2.2786 4.375-5.0893 4.375s-5.0893-1.9588-5.0893-4.375 2.2786-4.375 5.0893-4.375 5.0893 1.9588 5.0893 4.375z" fill="#fff"/>
 </g>
 <path transform="matrix(1.4742 0 0 1.1813 1269.2 -439.12)" d="m-511.07 569.86c0 4.3394-1.6789 7.8572-3.75 7.8572s-3.75-3.5178-3.75-7.8572 1.6789-7.8571 3.75-7.8571 3.75 3.5178 3.75 7.8571z" fill="#fff" fill-rule="evenodd"/>
 <path transform="matrix(1.4553 0 0 1.3374 1258.2 -526.64)" d="m-512.5 570.31c0 2.1204-0.99937 3.8393-2.2322 3.8393s-2.2321-1.7189-2.2321-3.8393 0.99936-3.8393 2.2321-3.8393 2.2322 1.7189 2.2322 3.8393z" fill-rule="evenodd"/>
 <g transform="matrix(1.4742 0 0 1.1813 1269.7 -437.01)">
  <path d="m-512.68 568.34c0 1.8245-0.79949 3.3036-1.7857 3.3036s-1.7857-1.4791-1.7857-3.3036 0.79949-3.3036 1.7857-3.3036 1.7857 1.4791 1.7857 3.3036z" fill="#fff" fill-rule="evenodd"/>
 </g>
 <path d="m504.6 259.97c-4.6501 3.8213-22.981 0.17367-22.981-5.177 0-0.4209-0.50273-0.3145-0.12626-0.12627 1.3196 0.6598 3.2711 0.68919 4.7982 1.1364 3.8805 1.1364 9.6765 0.35568 12.627 1.0102 1.8951 0.42037 4.493 1.8372 5.6821 3.1567z" fill="#a40"/>
 <path d="m507.13 241.03c-1.3205-7.3707-16.24-7.7751-19.824-4.4194-0.64108 0.60025-3.4978 2.5574-2.2728 3.1567 2.1732 1.0633 9.0845-1.325 12.248-1.389 3.9286-0.0794 7.6273 1.9656 9.9753 2.7779" fill="#fff"/>
 <path d="m404.47 470.59c-41.416 15.152-85.863 37.376-96.975 35.355s-31.315-10.102-31.315-10.102c28.435 24.424 117.82 21.531 128.29-25.254z" fill="#999"/>
 <path d="m254.46 540.29c26.264 24.749 36.367 29.63 44.952 28.284 8.9955-1.4103 25.254-8.0812 25.254-8.0812s6.0609-17.173-2.0203-22.223-61.619-2.5254-68.185 2.0203z" fill="#ececec"/>
 <path d="m296.38 567.56c14.003 33.291-24.418 22.38-30.305 26.264-9.8803 6.5189 27.269 3.0289 33.335 5.0508 22.334 7.4447 54.879 19.159 52.023 10.102-0.99373-3.1514-34.294-7.6775-34.85-12.122-1.1404-9.1145 54.23 2.8986 50.003-5.5558-6.5762-13.152-42.447 6.0405-51.518-3.0305-2.0565-2.0565 20.686-3.558 18.183-6.0609-7.3541-7.3541-19.83 5.424-24.244-0.50508-1.3459-1.808-6.5799-32.269-12.627-14.142z" fill="#ff8080"/>
 <path d="m505.36 260.4c-6.1861 1.0497-11.413 2.1504-15.714 0-2.0424-0.3676-6.1406-1.9309-7.3214-3.5714 0 3.8055 6.8785 9.0213 9.2857 11.429 5.1456 3.4852 8.0805 7.6324 8.75 13.036 2.2424 0.0209 2.5755-1.3153 3.9286-5.1786 0.96303-9.7027 1.7468-9.8267 1.0714-15.714z" fill="#483737"/>
 <path d="m366.25 313.08c41.475-12.457 70.8 15.726 102.68 36.786 1.4825 0.74126 6.1656 4.013 9.8214 2.3214 0.18773-0.0869 1.6659 1.0664 3.2143-2.1428-0.5224 3.7474-0.099 9.0031-0.53571 12.857-1.4637 3.5399-9.3979 0.61738-17.857-1.4286-17.869-5.1262-31.87-21.37-46.964-31.071-15.047-6.7011-33.751-16.554-50.357-17.321z" fill="#c8b7b7"/>
 <path d="m288.3 497.86c-38.455 13.73-79.249 19.383-122.23 12.122-5.2585-0.88842-37.744-6.9717-34.345-13.132 10.788-19.555 135.69-8.3086 156.57 1.0102z" fill="#6c5353"/>
 <path d="m279.25 497.19c-96.429-1.4286-105.68 2.3162-132.82-7.6838s-18.571-11.429-0.71429-15.714 35-5.7143 35-5.7143-19.734-1.5966-18.571-8.5714c0.71428-4.2857 15.844-11.252 24.582-12.561 7.5613-1.1327-16.33-8.6867-14.293-10.931 2.4028-2.6479 46.472-18.319 46.472-18.319s-5.5769 1.1401-8.1889 16.811c-2.7112 16.266 2.8552 24.685 12.684 35.296 9.6175 10.383 52.995 25.959 55.852 27.388z" fill="#483737"/>
 <path d="m399.29 477.36c-34.304 33.095-101.72 34.888-142.27 15.469-35.296-13.987-62.275-32.979-48.63-71.862 47.594-38.497 85.329-65.49 143.04-60.036 48.343 1.6834 76.774 79.5 47.857 116.43z" fill="#ccc"/>
 <path d="m490.71 237.5c10.466-1.661 13.115 0.51762 20.077 6.8185 1.9205 3.3735 2.398 6.3637 2.9042 10.102 0.50508 5.0508 0.3788 8.3338-2.9042 8.8388-5.1396 0.79072-3.5355-3.5355-9.5964-5.8084-4.8228-1.8086-7.0711-0.25254-12.879-1.0102s-7.5762-1.2627-8.8388-4.5457c-4.0652-8.252 4.074-12.001 11.238-14.395z" fill="#ff7f2a"/>
 <path d="m491.09 243.68c-1.3645-0.0627-1.6244 0.67536-1.894 1.2627-1.2856 2.8008 6.4397 5.0105 6.4397 4.0406 0-0.75424-3.2259-2.342-3.6618-2.7779-0.16381-0.16381 3.3072-1.6872-0.88388-2.5254z" fill="#a40"/>
 <path d="m502.68 239.33c3.75 1.9643 6.0714 5 7.3214 9.1071 1.1509 3.7816 1.6071 10.179 1.6071 10.179-2.6555-5.2193-5.2015-10.927-10.536-13.75-5.076-2.538-7.1428-5-7.1428-5s3.0357-1.9643 8.75-0.53572z" fill="#fca"/>
</svg>
