<?xml version="1.0" encoding="UTF-8" standalone="no"?>
<!-- Created with Inkscape (http://www.inkscape.org/) -->

<svg
   width="210mm"
   height="297mm"
   viewBox="0 0 210 297"
   version="1.1"
   id="svg1"
   xml:space="preserve"
   inkscape:version="1.4 (86a8ad7, 2024-10-11)"
   sodipodi:docname="pod_gackiem_sym.svg"
   xmlns:inkscape="http://www.inkscape.org/namespaces/inkscape"
   xmlns:sodipodi="http://sodipodi.sourceforge.net/DTD/sodipodi-0.dtd"
   xmlns:xlink="http://www.w3.org/1999/xlink"
   xmlns="http://www.w3.org/2000/svg"
   xmlns:svg="http://www.w3.org/2000/svg"><sodipodi:namedview
     id="namedview1"
     pagecolor="#ffffff"
     bordercolor="#000000"
     borderopacity="0.25"
     inkscape:showpageshadow="2"
     inkscape:pageopacity="0.0"
     inkscape:pagecheckerboard="0"
     inkscape:deskcolor="#d1d1d1"
     inkscape:document-units="mm"
     inkscape:zoom="2.9041807"
     inkscape:cx="385.3066"
     inkscape:cy="494.28743"
     inkscape:window-width="1920"
     inkscape:window-height="1017"
     inkscape:window-x="-8"
     inkscape:window-y="-8"
     inkscape:window-maximized="1"
     inkscape:current-layer="layer1" /><defs
     id="defs1" /><g
     inkscape:label="Warstwa 1"
     inkscape:groupmode="layer"
     id="layer1"><path
       style="fill:#333333;stroke-width:0.264583"
       d="m 57.334213,139.27704 c 8.294004,-17.75999 15.945683,-20.20148 20.012004,-20.17577 1.745057,0.011 5.951339,0.51 5.951339,0.51 0,0 0.728835,3.37197 4.20754,1.43936 3.478705,-1.93262 -1.619837,1.5637 1.137463,2.7655 2.516975,1.09705 11.512611,11.50433 8.795128,6.73747 -0.955435,-1.67597 0.16427,-0.0154 -2.114289,-3.44545 -1.612787,-2.42781 -2.300249,-4.19391 -2.300249,-4.19391 0,0 -1.030731,-4.76711 -2.576819,-6.69972 -1.407548,-1.75944 1.172715,-1.03724 4.340046,0.15124 1.776125,0.66644 4.292298,3.45633 4.292298,3.45633 0,0 1.233056,2.35755 2.000096,4.84351 0.63348,2.0531 2.64191,-0.15181 4.57079,-0.46292 3.99407,-0.64421 -1.15957,25.25283 -1.15957,25.25283 0,0 -1.94843,-4.53321 -4.509429,-1.41725 -1.310828,1.59488 2.393489,-4.18077 0.121989,-0.88156 -6.684617,9.70899 -1.431731,-0.42923 -2.45412,-0.64123 -2.19657,-0.45549 -5.779877,1.14776 -7.717463,-1.05404 -2.8345,-3.22102 -4.638273,-0.77304 -4.638273,-0.77304 0,0 0.901887,-2.44798 -2.190295,-4.38059 -3.092183,-1.93261 -8.503502,-0.51536 -8.503502,-0.51536 0,0 0.386522,-2.44798 -2.319137,-3.73639 -2.70566,-1.28841 -14.945547,3.22102 -14.945547,3.22102 z"
       id="path1"
       sodipodi:nodetypes="cscsssscsscsscsssscscscc" /><use
       x="0"
       y="0"
       xlink:href="#path1"
       id="use1"
       transform="matrix(-1,0,0,1,208.90549,0.12883933)"
       style="display:inline;fill:#000000" /><path
       style="fill:#000000;stroke-width:0.158481"
       d="m 101.21409,128.35988 c 0.89366,0.0277 1.51233,-0.42115 1.78731,0.5752 0.27497,0.99635 0.82492,0.76223 -0.54994,0.93551 -2.1864,0.27557 -2.33725,-0.42773 -1.23737,-1.51071 z"
       id="path3"
       sodipodi:nodetypes="cssc" /><use
       x="0"
       y="0"
       xlink:href="#path3"
       id="use3"
       transform="matrix(-1,0,0,1,208.26261,0)" /></g></svg>
